<svg width="360" height="360" viewBox="0 0 360 360" fill="none" xmlns="http://www.w3.org/2000/svg">
<path d="M42.0893 171.997C38.5325 142.276 40.1327 112.43 46.6361 83.0468C47.5811 78.779 51.4925 82.6616 79.0667 76.4858C81.1763 76.0142 83.2679 75.521 85.3397 75.0116C86.2685 73.2926 87.2981 71.5808 88.4429 69.896C64.4327 75.5966 45.5903 77.5334 44.9189 78.1184C43.7273 79.1552 43.3565 79.5944 42.5231 83.1656C34.4987 117.564 34.2899 154.008 40.7357 188.941C41.0543 183.384 41.5061 177.676 42.0875 171.996L42.0893 171.997Z" fill="#154484"/>
<path d="M311.112 100.888C306.396 96.3738 298.445 91.5336 295.069 90.333C290.367 88.659 248.611 84.6558 189.495 49.4388C167.405 36.2808 170.158 33.9552 161.942 39.8322C159.066 41.8896 156.055 43.839 152.939 45.684C154.296 45.891 155.642 46.1322 156.98 46.4094C167.791 39.7134 166.14 38.3274 168.685 40.2354C194.44 59.5494 240.458 82.4094 285.073 91.4904C289.886 92.4696 292.59 91.0998 291.832 95.6106C290.709 102.294 288.067 142.733 268.693 189.796C243.355 251.35 191.05 307.922 141.55 334.157C137.794 336.148 134.006 338.881 128.878 334.876C117.171 325.732 108.896 318.544 98.0838 305.656C79.29 283.255 73.0836 272.358 64.8234 252.855C63.5112 252.355 62.118 251.818 60.5376 251.226C60.354 251.158 60.1722 251.089 59.9922 251.021C72.7002 279.364 90.1566 304.74 111.535 324.605C115.531 328.318 143.447 352.544 149.013 350.924C165.726 346.061 212.735 314.71 245.401 274.3C304.409 201.303 314.433 104.072 311.11 100.892L311.112 100.888ZM308.743 103.336C300.933 197.685 250.234 288.869 164.954 339.748C146.419 350.806 147.658 349.132 143.869 346.316C142.907 345.602 137.588 341.59 137.455 341.455C135.839 339.827 135.286 341.885 148.171 334.735C191.938 310.451 229.284 268.812 253.638 228.589C273.978 194.996 283.111 166.855 289.701 134.149C298.687 89.5608 292.536 92.2194 298.886 95.7474C302.063 97.5114 304.943 99.7272 307.962 101.731C308.77 102.267 308.765 102.285 308.743 103.336Z" fill="#154484"/>
<path d="M113.756 107.728C174.197 109.278 173.446 116.786 174.184 109.694C176.591 86.5476 163.872 73.5444 143.323 72.3564C132.966 77.4648 122.441 81.3294 112.579 84.276C109.967 87.858 108.004 92.1942 106.564 97.2252C105.514 100.894 105.208 103.572 105.215 106.85C105.217 108.029 105.138 107.507 113.756 107.728Z" fill="#154484"/>
<path d="M74.176 109.024C76.8904 108.974 76.0156 107.631 76.1416 106.983C76.6312 104.465 77.173 98.8001 78.9208 91.8701C69.919 93.3317 64.0924 93.8987 63.4606 94.3703C62.7586 94.8923 62.1466 95.5367 61.9576 96.4727C60.7696 102.319 59.8012 108.058 59.0344 113.684C63.4876 110.929 69.6724 109.109 74.176 109.024Z" fill="#154484"/>
<path d="M266.935 105.28C264.647 104.486 237.604 100.947 202.401 83.4459C201.931 83.2137 201.47 82.9815 201.013 82.7529C201.643 84.7527 202.156 86.8281 202.543 88.9773C206.294 109.802 199.744 116.683 202.831 117.527C218.113 121.712 225.52 124.468 228.317 141.681C231.606 161.922 223.837 213.973 216.688 242.598C239.866 209.797 262.76 154.557 268.853 108.509C268.884 106.203 268.65 105.874 266.936 105.28H266.935Z" fill="#154484"/>
<path d="M173.761 268.761C152.467 268.761 135.869 270.52 87.7031 259.58C109.246 295.155 134.759 313.419 138.535 312.267C147.848 309.427 160.798 299.091 166.145 295.027C180.149 284.385 189.056 276.077 197.411 266.677C189.832 268.29 180.895 268.365 173.761 268.761Z" fill="#154484"/>
<path d="M228.318 141.682C225.52 124.469 218.113 121.713 202.831 117.528C199.744 116.682 206.295 109.802 202.543 88.9779C195.432 49.4949 145.959 35.2821 110.679 51.2247C79.4505 65.3367 77.5695 99.6195 76.1403 106.985C76.0143 107.633 76.8891 108.974 74.1747 109.025C67.4013 109.152 56.8227 113.202 54.0597 118.458C41.4975 142.359 36.8121 216.587 42.6927 234.492C44.3505 239.539 43.5531 244.872 60.5361 251.226C69.2067 254.47 72.2631 256.058 86.9439 259.409C135.697 270.54 152.356 268.764 173.762 268.764C187.528 268.001 208.017 268.427 212.496 256.7C220.218 236.477 232.274 166.041 228.316 141.684L228.318 141.682ZM80.1057 108.009C80.2137 103.056 84.1467 85.6011 89.7843 75.8361C95.6163 65.7327 101.448 60.8043 109.357 56.3331C119.23 50.7531 137.562 48.5787 139.749 48.5355C152.367 48.2853 164.711 52.0617 174.463 57.2331C188.536 64.6941 194.355 73.5285 197.208 84.8253C199.784 95.0259 199.703 107.207 198.313 114.808C197.788 117.679 198.211 116.286 178.686 113.478C177.995 113.379 177.828 113.202 177.932 112.423C185.017 59.5605 120.579 57.6093 105.644 88.3965C101.418 97.1085 101.625 107.379 101.617 107.428C101.439 108.434 93.3105 107.703 93.3105 107.979C79.5477 107.979 80.0895 108.803 80.1057 108.009ZM174.184 109.694C173.446 116.786 174.197 109.278 113.757 107.729C105.138 107.507 105.216 108.031 105.214 106.85C105.208 103.572 105.513 100.892 106.562 97.2255C111.244 80.8599 121.482 71.8275 141.45 72.2811C163.095 72.7725 176.661 85.8531 174.183 109.692L174.184 109.694ZM212.289 242.559C208.791 257.87 208.984 259.294 194.863 262.518C187.153 264.278 152.147 265.124 144.304 264.127C138.573 263.398 138.282 266.314 97.8141 257.899C37.8831 245.439 48.6741 240.516 44.4441 220.473C42.0051 166.31 53.2785 125.91 56.6409 121.29C59.3769 117.531 61.6755 117.04 63.9327 115.422C64.6419 114.914 64.3503 115.24 67.9557 114.043C70.5585 113.179 74.6139 113.046 74.6571 113.046C111.795 109.995 143.055 113.121 179.975 118.147C198.227 120.631 219.804 122.391 223.148 136.424C228.692 159.687 217.336 220.475 212.29 242.558L212.289 242.559Z" fill="#154484"/>
<path d="M108.08 153.839C102.431 164.25 104.301 178.112 114.639 187.136C115.076 187.517 115.247 187.944 115.166 188.496C114.363 194.028 113.1 207.054 113.13 213.941C113.183 225.447 113.667 231.808 123.398 235.917C130.286 238.828 137.472 236.132 140.359 227.18C141.567 223.433 141.644 220.673 143.077 207.683C144.872 191.423 143.468 191.929 145.095 191.223C152.865 187.854 160.397 178.184 160.206 166.749C161.311 140.971 121.711 128.713 108.078 153.837L108.08 153.839ZM123.842 199.239C120.363 232.091 125.286 235.496 119.722 231.048C115.942 228.026 115.778 220.821 115.836 215.556C116.07 194.222 119.996 188.012 117.632 185.94C108.971 178.355 104.559 165.944 112.158 153.656C113.928 150.795 117.996 147.744 118.269 147.485C121.322 144.6 125.957 144.288 124.177 146.256C112.488 159.187 116.981 173.479 125.383 179.982C127.007 181.239 125.79 180.825 123.839 199.237L123.842 199.239Z" fill="#154484"/>
<path d="M203.407 143.406C202.835 166.666 194.434 259.213 190.599 248.409C189.627 245.673 200.792 145.847 200.72 141.797C200.567 133.215 198.454 132.216 199.723 131.525C200.644 131.022 201.71 132.536 202.043 133.415C203.253 136.608 203.494 139.992 203.409 143.408L203.407 143.406Z" fill="#154484"/>
<path d="M34.0129 308.525C32.9797 308.174 42.5431 298.325 42.3685 296.496C42.2227 294.966 40.4029 294.082 39.1699 295.178C37.4923 296.672 34.3549 299.975 31.9141 302.465C30.8845 303.516 31.4245 294.858 27.8641 288.205C27.0163 286.621 24.9391 286.999 24.8797 288.923C24.759 292.844 26.7337 303.241 27.4033 306.376C24.0193 305.519 14.2939 302.841 14.2129 306.376C14.1949 307.166 14.6467 307.633 15.2551 307.933C22.5451 311.524 24.5035 310.705 23.7403 311.72C19.6759 317.129 18.3853 318.55 17.6869 320.63C17.1883 322.112 17.5807 323.762 19.2168 323.775C21.0078 323.789 21.6019 322.306 25.5817 317.498C30.8503 311.134 28.0639 312.806 31.5559 322.466C32.4253 324.871 32.6431 325.474 33.7735 325.305C35.7247 325.013 34.4287 318.568 34.0219 315.05C33.8257 313.357 43.6483 318.955 45.0487 315.374C46.2169 312.39 40.9825 310.891 34.0129 308.522V308.525Z" fill="#154484"/>
<path d="M276.574 29.4623C275.173 29.0357 280.012 26.8901 283.52 22.0157C284.531 20.6099 283.262 19.1195 279.812 21.2669C272.702 25.6913 272.614 27.3347 272.401 26.2439C271.627 22.2875 271.21 19.2581 269.966 17.0315C268.654 14.6807 265.198 13.9841 266.249 21.4397C267.548 30.6467 269.066 27.0773 261.41 27.4679C257.92 27.6461 256.669 29.7485 257.729 31.1309C258.354 31.9463 259.398 32.1065 261.544 32.5637C265.727 33.4547 264.917 31.8887 258.212 38.4713C257.506 39.1643 256.608 40.7105 257.555 41.7707C259.207 43.6193 262.046 40.7879 268.227 35.9207C269.06 35.2637 268.369 35.9027 270.409 41.6915C271.093 43.6301 271.517 44.9423 272.929 44.9513C274.117 44.9603 275.346 43.6823 275.031 41.3315C273.343 28.7603 272.335 37.2725 283.414 33.6545C287.231 32.4071 280.163 30.5567 276.574 29.4623Z" fill="#154484"/>
<path d="M273.224 331.159C271.76 336.708 280.44 336.93 279.952 332.098C280.28 328.669 274.457 326.479 273.224 331.159Z" fill="#154484"/>
<path d="M76.3038 9.01095C73.8288 8.85975 66.4668 11.6444 69.0966 17.1416C71.1288 21.3896 77.0328 22.4732 80.469 18.632C84.3336 14.3119 80.3988 8.71935 76.3038 9.01095ZM75.4272 17.5087C71.6076 17.7787 70.9776 13.3507 72.3132 12.8953C73.5552 12.4723 74.7486 11.8298 76.1238 11.9198C80.0442 12.1772 78.8958 17.8093 75.4272 17.5087Z" fill="#154484"/>
<path d="M345.285 212.708C342.355 206.127 332.541 208.689 329.62 211.963C323.768 218.517 332.608 231.268 341.653 223.544C344.713 220.931 346.786 216.08 345.285 212.708ZM335.545 222.236C334.285 222.408 331.22 219.451 331.997 215.973C332.507 213.689 334.742 211.914 335.803 212.105C336.487 212.229 337.205 212.127 337.905 212.175C344.579 212.638 341.037 221.982 335.545 222.236Z" fill="#154484"/>
</svg>
