<svg width="401" height="400" viewBox="0 0 401 400" fill="none" xmlns="http://www.w3.org/2000/svg">
<path d="M219.124 131.133C217.464 131.985 220.2 135.039 220.832 132.663C220.932 131.933 219.87 130.749 219.124 131.133Z" fill="#FB8312"/>
<path d="M228.754 128.463C228.854 127.733 227.794 126.555 227.046 126.935C225.39 127.799 228.122 130.839 228.754 128.463Z" fill="#FB8312"/>
<path d="M133.829 250.835C133.571 250.896 133.347 251.056 133.207 251.282C133.067 251.507 133.023 251.779 133.083 252.037C133.143 252.295 133.304 252.519 133.529 252.659C133.755 252.799 134.027 252.844 134.285 252.783C149.194 249.32 164.66 248.99 179.703 251.816C194.745 254.642 209.037 260.561 221.673 269.199C221.887 269.199 222.095 269.131 222.267 269.005C222.439 268.879 222.566 268.7 222.629 268.496C222.693 268.293 222.689 268.074 222.619 267.872C222.55 267.67 222.417 267.496 222.241 267.375C209.462 258.628 195 252.639 179.777 249.791C164.555 246.944 148.906 247.299 133.829 250.835Z" fill="#FB8312"/>
<path d="M228.272 261.079C205.348 246.743 179.728 237.107 152.546 241.105C152.29 241.148 152.061 241.288 151.907 241.496C151.752 241.704 151.685 241.964 151.718 242.22C151.752 242.477 151.884 242.711 152.086 242.873C152.288 243.034 152.546 243.111 152.804 243.087C169.562 240.89 186.603 243.096 202.25 249.487C210.879 253.312 219.222 257.753 227.214 262.777C227.439 262.917 227.71 262.962 227.969 262.902C228.227 262.842 228.451 262.682 228.592 262.457C228.732 262.232 228.777 261.96 228.717 261.702C228.657 261.443 228.497 261.219 228.272 261.079Z" fill="#FB8312"/>
<path d="M170.443 233.813C170.178 233.822 169.927 233.937 169.747 234.131C169.566 234.326 169.47 234.584 169.479 234.849C169.489 235.114 169.603 235.365 169.798 235.545C169.992 235.726 170.25 235.822 170.515 235.813C193.574 234.995 216.141 242.612 233.987 257.237C234.961 258.069 236.283 256.505 235.257 255.691C216.998 240.821 193.979 233.051 170.443 233.813Z" fill="#FB8312"/>
<path d="M164.943 226.531C164.678 226.55 164.431 226.674 164.258 226.876C164.084 227.077 163.997 227.339 164.016 227.604C164.036 227.869 164.16 228.116 164.361 228.29C164.562 228.464 164.824 228.55 165.089 228.531C192.948 226.468 220.528 235.229 242.089 252.991C243.055 253.825 244.389 252.261 243.357 251.447C221.385 233.387 193.31 224.466 164.943 226.531Z" fill="#FB8312"/>
<path d="M174.665 222.043C188.143 220.19 201.866 221.425 214.796 225.655C227.727 229.884 239.527 236.998 249.305 246.457C250.205 247.367 251.655 245.917 250.695 245.021C240.686 235.369 228.62 228.11 215.405 223.787C202.189 219.464 188.165 218.191 174.387 220.063C174.129 220.106 173.899 220.247 173.744 220.458C173.589 220.668 173.523 220.93 173.56 221.189C173.596 221.447 173.732 221.682 173.938 221.841C174.145 222.001 174.406 222.073 174.665 222.043Z" fill="#FB8312"/>
<path d="M72.1711 226.629C66.7411 227.941 66.3271 235.549 72.4611 235.629C80.7391 235.675 80.9211 224.513 72.1711 226.629ZM76.3711 231.817C75.7828 232.526 75.0086 233.057 74.1353 233.351C73.2621 233.644 72.3242 233.689 71.4271 233.479C68.6991 232.479 69.9671 229.245 72.7831 228.533C74.9711 227.481 77.8871 229.613 76.3691 231.817H76.3711Z" fill="#FB8312"/>
<path d="M306.657 252.225C305.541 252.225 305.033 252.225 302.127 270.649C300.727 279.481 299.419 288.811 299.189 290.527C299.311 292.587 303.311 291.619 304.739 291.927C337.977 291.519 338.781 254.699 306.657 252.225ZM324.127 282.499C318.359 288.875 308.743 290.431 301.311 289.771C302.487 281.171 305.953 257.891 307.209 254.247C322.805 255.025 335.327 270.117 324.127 282.499Z" fill="#FB8312"/>
<path d="M390.065 110.691C386.357 107.905 381.965 110.271 378.639 107.313C378.307 106.99 377.91 106.741 377.475 106.581C377.04 106.422 376.577 106.355 376.114 106.386C375.652 106.417 375.201 106.545 374.791 106.761C374.382 106.977 374.022 107.277 373.735 107.641C372.592 109.052 371.929 110.791 371.843 112.605C360.061 124.743 346.103 134.121 324.243 139.415C328.817 134.724 332.553 129.284 335.289 123.331C341.889 107.233 315.143 94.931 303.489 92.007C302.973 89.825 304.553 86.341 305.195 84.105C305.925 81.159 303.795 79.705 302.235 80.505C298.393 81.773 296.549 86.009 294.319 88.927C289.961 94.727 293.249 96.477 298.367 99.095C298.215 99.293 298.147 99.5432 298.178 99.7912C298.209 100.039 298.337 100.265 298.533 100.419C301.177 103.047 314.133 113.347 309.077 117.267C306.341 119.381 298.143 125.715 293.383 129.765C284.097 129.317 280.045 129.295 274.047 130.329C273.975 130.342 273.909 130.379 273.86 130.433C273.811 130.488 273.782 130.557 273.776 130.63C273.771 130.703 273.79 130.776 273.831 130.837C273.872 130.898 273.932 130.944 274.001 130.967C291.691 139.499 294.871 162.353 289.153 178.667C293.079 178.395 299.963 178.835 303.223 177.317C315.543 176.095 332.959 172.717 342.131 167.503C351.519 162.391 359.654 155.258 365.951 146.62C372.248 137.982 376.549 128.055 378.543 117.553C382.122 116.219 385.793 115.15 389.527 114.353C391.259 114.081 392.527 111.561 390.065 110.691ZM311.351 96.777C322.127 100.995 338.305 111.353 333.467 122.501C330.359 129.273 325.914 135.347 320.397 140.357C318.439 140.833 315.859 141.341 313.859 141.785C319.693 135.974 324.999 129.658 329.715 122.909C331.038 121.211 331.876 119.185 332.139 117.049C331.115 110.059 324.539 108.065 319.105 104.349C316.295 102.784 313.588 101.04 311.001 99.127C311.235 98.3656 311.353 97.5734 311.351 96.777ZM300.377 97.929L296.083 95.577C294.999 94.993 293.883 94.071 294.433 92.733C295.724 90.3686 297.195 88.1072 298.833 85.969C299.791 84.2688 301.335 82.9756 303.177 82.331C303.321 82.403 303.421 82.979 303.297 83.505C302.293 86.1686 301.599 88.9388 301.227 91.761C301.11 92.3413 301.141 92.9416 301.315 93.5072C301.49 94.0728 301.804 94.5857 302.227 94.999C301.98 96.165 301.323 97.2041 300.377 97.929ZM303.057 101.787C302.361 101.149 301.701 100.489 301.031 99.915C301.995 99.326 302.799 98.51 303.374 97.5384C303.95 96.5667 304.278 95.469 304.331 94.341C305.907 94.819 307.567 95.373 309.229 95.977C310.059 99.657 306.535 103.555 303.057 101.787ZM290.999 131.599C292.087 131.501 293.377 132.127 294.357 131.571C299.021 127.571 307.513 121.011 310.247 118.897C315.785 114.441 308.959 107.911 305.343 104.145C306.357 104.103 307.341 103.792 308.195 103.244C309.049 102.696 309.742 101.931 310.203 101.027C315.663 105.871 328.471 109.577 330.145 116.943C329.9 118.697 329.192 120.354 328.093 121.743C323.217 128.731 317.702 135.25 311.619 141.217C310.631 140.017 308.235 137.123 306.949 138.917C306.898 139.038 306.87 139.168 306.869 139.299C306.867 139.431 306.892 139.562 306.941 139.684C306.99 139.806 307.062 139.917 307.154 140.011C307.247 140.105 307.356 140.18 307.477 140.231C308.686 140.803 309.689 141.731 310.353 142.891C311.027 145.397 315.389 143.269 317.179 143.123C338.315 138.907 357.361 130.185 368.707 118.323C370.019 118.626 371.205 119.324 372.107 120.323C360.725 148.773 336.941 165.345 306.763 165.985C307.787 152.817 303.643 138.015 290.999 131.599ZM363.329 146.999C350.083 165.757 329.165 172.581 305.563 175.049C306.193 172.747 306.546 170.378 306.615 167.993C337.393 167.409 361.701 150.697 373.559 121.969C377.125 126.473 366.699 142.231 363.329 146.999ZM375.899 120.449C375.811 120.805 375.699 121.155 375.605 121.509C374.415 119.346 372.527 117.651 370.249 116.699C371.179 115.775 372.469 113.779 373.809 114.287C374.403 114.492 374.942 114.829 375.386 115.275C375.829 115.72 376.164 116.261 376.366 116.855C376.567 117.45 376.63 118.083 376.549 118.706C376.469 119.329 376.246 119.925 375.899 120.449ZM378.087 115.515C377.178 114.171 375.926 113.095 374.461 112.397C373.093 112.427 374.835 109.345 375.273 108.903C376.603 106.571 380.413 113.001 387.273 112.861C384.165 113.577 381.098 114.463 378.087 115.515Z" fill="#154484"/>
<path d="M225.315 125.737C226.257 125.475 227.331 124.807 228.181 125.261C228.428 125.359 228.703 125.356 228.947 125.251C229.191 125.147 229.383 124.949 229.481 124.703C229.58 124.457 229.576 124.181 229.472 123.937C229.367 123.694 229.17 123.501 228.923 123.403C227.739 122.827 223.755 123.105 224.457 125.253C224.546 125.401 224.672 125.523 224.823 125.608C224.973 125.693 225.143 125.737 225.315 125.737Z" fill="#FB8312"/>
<path d="M217.989 131.051C218.202 130.312 218.639 129.658 219.239 129.179C219.452 129.02 219.592 128.783 219.629 128.52C219.667 128.258 219.599 127.991 219.439 127.779C219.28 127.567 219.043 127.426 218.781 127.389C218.518 127.351 218.252 127.42 218.039 127.579C217.074 128.336 216.377 129.382 216.051 130.565C216 130.817 216.048 131.08 216.185 131.298C216.322 131.515 216.538 131.672 216.788 131.735C217.038 131.797 217.302 131.761 217.526 131.634C217.75 131.506 217.916 131.298 217.989 131.051Z" fill="#FB8312"/>
<path d="M228.047 136.171C227.117 137.075 228.557 138.515 229.461 137.585C229.861 137.185 230.201 136.801 230.545 136.407C230.039 137.285 229.477 138.463 230.981 138.687C232.945 138.125 232.981 135.201 231.763 133.827C230.215 132.501 229.153 135.409 228.047 136.171Z" fill="#FB8312"/>
<path d="M224.004 135.649C225.184 136.205 227.71 134.289 226.268 133.075C225.624 132.569 224.868 133.275 224.578 133.727C224.02 133.101 225.318 128.769 223.46 128.843C223.195 128.843 222.94 128.949 222.753 129.136C222.565 129.324 222.46 129.578 222.46 129.843C222.59 131.455 221.82 135.143 224.004 135.649Z" fill="#FB8312"/>
<path d="M348.574 256.365C342.02 243.097 325.574 235.237 306.308 232.057C314.292 224.867 317.474 221.891 317.67 221.499C318.488 218.257 317.924 207.045 319.508 204.061C319.589 203.848 319.601 203.615 319.542 203.396C319.482 203.176 319.355 202.98 319.178 202.837C308.162 195.324 296.115 189.45 283.412 185.399C294.562 167.823 289.832 136.275 266.722 130.329C271.078 124.111 266.534 114.611 258.904 115.237C253.864 115.313 248.84 115.806 243.882 116.711C245.144 115.647 244.482 113.311 243.578 112.455C247.634 110.173 242.49 102.987 238.578 103.347C238.778 100.267 236.63 94.6392 233.02 97.0912C231.962 95.5341 230.624 94.1878 229.074 93.1212C227.054 91.9212 224.46 91.6432 223.344 93.8192C221.676 92.7496 219.798 92.0492 217.838 91.7652C215.294 91.7292 213.038 93.3652 213.346 95.6472C210.642 95.0472 207.666 95.3332 206.194 98.0472C205.484 99.6772 207.092 100.603 204.562 100.483C201.016 100.805 198.762 105.637 202.362 107.905C198.432 108.803 195.362 115.921 200.714 117.043C198.822 119.643 197.526 123.519 199.684 126.137C171.894 130.789 149.744 134.663 128.8 138.807C118.69 143.363 111.124 149.363 101.434 154.407C101.206 154.525 101.033 154.726 100.95 154.968C100.866 155.209 100.878 155.474 100.984 155.707C102.46 158.955 129.408 161.307 134.794 161.753C159.559 158.165 184.113 153.247 208.35 147.019C199.874 153.799 187.764 160.135 186.712 172.229C160.2 169.215 135.47 173.055 114.53 186.399C79.0996 207.429 42.3716 228.513 9.55957 254.551C10.4856 260.649 12.5596 266.801 12.8696 272.537C12.8892 272.759 12.9825 272.968 13.1346 273.131C13.2867 273.294 13.4888 273.402 13.709 273.437C13.9291 273.472 14.1546 273.432 14.3497 273.324C14.5447 273.216 14.6982 273.046 14.7856 272.841C38.4856 265.911 65.2756 265.735 89.8136 271.171C109.78 274.675 103.192 284.049 109.246 285.371C109.608 285.461 116.352 286.297 116.446 286.187C117.712 286.079 118.282 284.637 118.246 283.647C118.966 274.447 124.394 274.229 133.17 274.647C174.088 277.303 188.82 284.027 222.74 305.647C222.867 305.73 223.012 305.782 223.163 305.798C223.313 305.815 223.466 305.795 223.608 305.742C223.75 305.688 223.877 305.602 223.98 305.49C224.082 305.378 224.157 305.243 224.198 305.097C244.364 287.097 274.028 260.941 287.23 249.097C282.152 269.921 277.512 290.987 272.274 316.955C272.247 317.09 272.248 317.228 272.277 317.362C272.305 317.496 272.362 317.623 272.442 317.734C272.521 317.846 272.623 317.94 272.741 318.01C272.859 318.08 272.99 318.126 273.126 318.143C293.904 320.799 320.772 321.453 337.202 308.229C352.862 296.469 358.3 273.455 348.574 256.365ZM258.95 117.237C266.034 117.185 268.434 125.011 264.584 129.795C261.85 129.152 259.054 128.817 256.246 128.795C256.706 126.765 256.602 124.648 255.947 122.672C255.291 120.697 254.108 118.938 252.526 117.585C254.638 117.385 256.784 117.255 258.95 117.237ZM253.208 157.071C252.648 154.515 254.906 154.133 255.464 156.707C256.527 164.544 255.665 172.521 252.952 179.949C242.904 178.622 232.684 179.789 223.196 183.349C220.051 181.612 216.779 180.117 213.408 178.877C218.498 175.209 224.976 170.059 229.966 166.697C235.097 172.871 242.214 177.071 250.1 178.577C250.325 178.569 250.543 178.489 250.719 178.347C250.895 178.205 251.02 178.01 251.076 177.791C253.367 171.14 254.096 164.05 253.208 157.071ZM242.986 128.055C243.769 126.653 244.16 125.067 244.118 123.462C244.076 121.856 243.603 120.292 242.748 118.933C244.87 118.599 247.204 118.107 249.548 117.933C251.459 118.956 252.96 120.606 253.798 122.606C254.636 124.606 254.759 126.833 254.148 128.913C250.69 129.199 243.876 129.879 241.548 130.113C240.668 129.475 242.802 129.019 242.986 128.055ZM216.9 124.433C219.854 125.681 222.628 123.069 223.77 120.333C224.809 120.755 225.96 120.814 227.037 120.503C228.114 120.191 229.056 119.526 229.71 118.615C230.074 118.941 230.524 119.155 231.006 119.234C231.488 119.312 231.983 119.251 232.432 119.057C233.012 120.025 234.35 121.789 235.378 123.117C235.31 123.935 235.46 124.756 235.812 125.497C236.039 125.95 236.406 126.317 236.858 126.545C237.31 126.774 237.823 126.851 238.323 126.766C238.822 126.681 239.281 126.438 239.631 126.073C239.982 125.708 240.207 125.239 240.272 124.737C240.256 124.467 241.032 124.481 241.292 123.923C241.729 123.366 241.943 122.666 241.892 121.959C242.35 123.875 242.184 127.439 239.882 127.987C239.102 128.031 238.364 128.987 238.828 129.713C240.559 132.655 242.71 135.328 245.214 137.647C245.902 143.411 237.014 150.799 233.368 143.719C234.706 142.509 235.186 144.075 236.24 144.973C236.84 145.573 237.858 144.573 237.252 143.961C236.475 143.318 235.794 142.569 235.228 141.735C235.028 141.335 234.628 141.335 234.216 141.535C232.013 143.182 229.256 143.907 226.528 143.559C224.983 143.177 223.531 142.486 222.262 141.526C220.992 140.567 219.931 139.359 219.142 137.977C218.982 137.011 218.712 135.399 217.414 134.777C215.892 133.683 215.478 131.161 214.704 129.431C215.771 127.934 216.518 126.232 216.9 124.433ZM227.342 144.999C222.458 147.967 215.142 143.677 214.798 138.169C214.83 137.729 215.029 137.319 215.354 137.021C215.68 136.724 216.107 136.562 216.548 136.569C217.028 136.893 217.118 138.145 217.248 138.715C217.59 140.081 219.234 142.263 220.482 141.751C222.289 143.644 224.732 144.8 227.342 144.999ZM111.592 156.999C108.97 156.645 106.377 156.102 103.834 155.373C106.532 154.517 109.216 150.573 111.936 152.663C112.44 153.411 111.22 153.761 111.216 154.453C111.046 155.605 112.506 155.377 112.924 156.117C112.789 156.362 112.597 156.571 112.366 156.727C112.134 156.883 111.869 156.982 111.592 157.015V156.999ZM134.592 159.711C127.78 159.147 120.406 158.311 114.46 157.447C114.647 157.19 114.779 156.897 114.846 156.586C114.913 156.276 114.914 155.954 114.849 155.643C114.783 155.332 114.654 155.038 114.468 154.78C114.282 154.522 114.044 154.305 113.77 154.145C113.94 153.804 114.034 153.429 114.045 153.047C114.055 152.666 113.983 152.286 113.832 151.936C113.681 151.585 113.456 151.271 113.172 151.017C112.887 150.762 112.551 150.573 112.186 150.461C117.703 146.847 123.448 143.594 129.386 140.721C131.576 140.815 133.68 141.602 135.394 142.969C137.108 144.335 138.343 146.211 138.922 148.326C139.501 150.44 139.393 152.683 138.615 154.733C137.836 156.782 136.427 158.531 134.59 159.727L134.592 159.711ZM138.192 159.227C139.474 157.78 140.399 156.051 140.891 154.181C141.382 152.311 141.427 150.351 141.022 148.46C140.616 146.569 139.772 144.8 138.556 143.295C137.341 141.791 135.789 140.593 134.026 139.799C154.646 135.849 176.816 131.933 204.538 127.347C204.608 129.283 206.232 131.731 208.362 130.689C208.962 130.289 208.974 129.743 209.534 130.603C209.77 130.898 210.066 131.139 210.402 131.312C210.739 131.485 211.107 131.585 211.485 131.605C211.862 131.626 212.239 131.567 212.592 131.432C212.945 131.298 213.266 131.09 213.534 130.823C214.046 132.175 214.65 133.489 215.344 134.757C212.064 135.823 212.414 139.833 214.048 142.275C213.275 142.791 212.549 143.373 211.878 144.015C187.608 150.411 163.012 155.494 138.196 159.243L138.192 159.227ZM109.144 282.867C109.018 282.907 108.886 282.921 108.756 282.909C108.625 282.898 108.498 282.861 108.381 282.8C108.265 282.739 108.161 282.656 108.077 282.555C107.993 282.455 107.929 282.339 107.89 282.213C106.469 277.682 103.674 273.705 99.8903 270.836C96.107 267.966 91.5239 266.345 86.7776 266.199C86.5124 266.199 86.258 266.094 86.0705 265.906C85.8829 265.719 85.7776 265.464 85.7776 265.199C85.7776 264.934 85.8829 264.68 86.0705 264.492C86.258 264.305 86.5124 264.199 86.7776 264.199C91.952 264.336 96.9537 266.09 101.08 269.215C105.207 272.34 108.252 276.678 109.788 281.621C109.865 281.872 109.841 282.143 109.721 282.376C109.6 282.609 109.393 282.786 109.144 282.867ZM109.678 274.067C95.9876 252.667 39.3056 249.637 15.7376 252.207C45.5556 229.451 78.3376 210.103 110.074 191.359C132.43 176.249 158.074 170.663 186.684 174.241C187.148 180.185 191.774 180.755 197.196 180.955C205.496 180.955 215.264 171.685 218.906 163.187C221.483 158.314 223.567 153.196 225.128 147.909C226.144 147.767 227.125 147.439 228.024 146.943C222.908 157.581 220.998 170.985 210.98 178.153C210.056 178.823 210.84 179.907 211.598 180.305C215.076 181.659 218.048 182.905 220.98 184.391C217.086 186.061 213.048 189.191 209.262 190.469C188.236 177.425 159.12 177.535 134.718 181.869C112.412 192.455 93.5556 207.045 71.9996 218.999C58.2736 226.957 44.0816 235.185 30.5176 244.093C30.3343 244.214 30.1958 244.391 30.1234 244.599C30.051 244.806 30.0488 245.031 30.117 245.239C30.1852 245.448 30.3201 245.628 30.501 245.753C30.6818 245.877 30.8984 245.938 31.1176 245.927C50.2125 244.663 69.3755 246.982 87.6176 252.765C95.6696 255.269 105.54 259.225 110.496 267.651C109.848 269.724 109.571 271.894 109.678 274.063V274.067ZM122.852 216.455C102.988 221.319 105.834 214.321 109.934 198.199C121.584 191.783 130.866 182.541 145.262 182.199C166.994 180.599 189.548 180.667 207.51 191.765C199.008 196.587 190.51 201.689 182.09 207.065C180.572 207.723 179.15 209.637 177.528 209.343C159.106 209.819 140.783 212.201 122.852 216.451V216.455ZM175.252 211.437C168.874 215.593 162.304 220.089 155.238 225.133C152.976 224.835 148.25 226.575 146.782 224.883C144.834 222.131 145.382 217.597 145.124 214.311C155.107 212.818 165.162 211.858 175.248 211.433L175.252 211.437ZM88.2316 250.861C70.9456 245.409 52.8439 243 34.7336 243.743C58.7956 228.431 83.6956 214.943 107.534 199.685C102.214 217.643 104.534 223.309 123.358 218.391C129.94 216.895 136.548 215.629 143.18 214.591C143.112 217.075 143.253 219.561 143.6 222.021C144.154 227.121 147.696 228.303 152.124 227.355C141.321 235.297 131.013 243.888 121.256 253.083C117.162 256.446 113.806 260.617 111.398 265.335C105.794 257.111 95.5756 253.169 88.2276 250.857L88.2316 250.861ZM160.762 274.249C160.686 274.503 160.512 274.717 160.279 274.843C160.045 274.969 159.772 274.997 159.518 274.921C159.77 274.611 111.466 262.647 115.744 282.921C115.772 283.05 115.775 283.182 115.752 283.312C115.729 283.441 115.681 283.565 115.61 283.675C115.54 283.786 115.448 283.882 115.34 283.957C115.232 284.033 115.111 284.086 114.983 284.114C114.854 284.143 114.722 284.145 114.592 284.123C114.463 284.1 114.339 284.051 114.228 283.981C114.118 283.91 114.022 283.818 113.947 283.711C113.871 283.603 113.818 283.482 113.79 283.353C111.688 274.863 119.99 268.799 130.562 269.129C140.534 269.072 150.467 270.374 160.088 272.999C160.213 273.037 160.331 273.099 160.432 273.182C160.534 273.265 160.619 273.368 160.681 273.483C160.743 273.599 160.782 273.726 160.795 273.857C160.808 273.987 160.795 274.119 160.758 274.245L160.762 274.249ZM190.15 272.529C190.065 272.781 189.884 272.988 189.647 273.106C189.41 273.225 189.135 273.244 188.884 273.159C188.684 273.089 168.266 266.267 153.244 264.173C137.28 261.949 120.924 265.373 116.008 271.961C115.274 273.015 113.596 271.795 114.408 270.761C120.56 262.509 139.142 260.183 153.524 262.187C168.724 264.307 189.324 271.187 189.524 271.257C189.774 271.343 189.98 271.525 190.097 271.763C190.213 272 190.231 272.275 190.146 272.525L190.15 272.529ZM220.75 278.243C214.133 272.725 206.526 268.516 198.336 265.843C183.561 260.549 167.963 257.926 152.27 258.097C141.158 258.675 117.052 259.697 111.638 272.351C111.988 265.189 116.99 259.587 122.62 254.551C149.098 229.171 189.454 203.351 221.132 186.531C228.82 182.431 239.302 180.837 252.264 181.785C251.516 182.887 250.846 186.549 249.536 186.075C242.417 185.118 235.212 184.98 228.062 185.663C227.93 185.675 227.802 185.712 227.685 185.772C227.568 185.833 227.465 185.916 227.38 186.017C227.295 186.118 227.231 186.234 227.191 186.36C227.151 186.486 227.136 186.618 227.148 186.749C227.17 187.014 227.298 187.26 227.501 187.431C227.602 187.516 227.719 187.58 227.844 187.62C227.97 187.66 228.102 187.675 228.234 187.663C235.168 187.002 242.154 187.128 249.06 188.039C247.828 190.045 246.441 191.952 244.912 193.741C244.765 193.548 244.551 193.416 244.312 193.371C236.998 192.145 229.55 191.937 222.18 192.753C222.048 192.768 221.921 192.808 221.805 192.871C221.689 192.935 221.587 193.02 221.504 193.123C221.422 193.226 221.36 193.344 221.323 193.471C221.286 193.598 221.274 193.731 221.289 193.862C221.303 193.994 221.343 194.121 221.406 194.237C221.47 194.352 221.556 194.455 221.659 194.537C221.762 194.62 221.88 194.682 222.007 194.719C222.133 194.756 222.266 194.768 222.398 194.753C229.495 193.968 236.666 194.157 243.712 195.315C242.124 196.973 240.146 200.145 237.912 200.481C237.328 200.165 215.068 195.371 220.998 199.813C226.13 200.16 231.224 200.938 236.226 202.139C233.926 204.115 230.178 203.565 227.908 205.409C226.756 205.879 226.012 207.229 226.652 208.067C224.452 207.715 208.436 204.667 208.334 207.315C208.334 207.58 208.439 207.835 208.626 208.022C208.814 208.21 209.068 208.315 209.334 208.315C211.906 208.601 228.578 208.301 225.096 211.413C224.23 212.647 223.936 215.425 225.928 215.599C226.42 215.411 225.97 216.953 226.47 217.473C213.321 212.425 199.185 210.477 185.162 211.783C184.896 211.808 184.652 211.937 184.482 212.143C184.312 212.348 184.231 212.612 184.256 212.877C184.281 213.142 184.41 213.387 184.615 213.557C184.82 213.727 185.084 213.808 185.35 213.783C213.182 210.913 240.26 222.233 259.514 241.713C259.709 241.714 259.9 241.657 260.064 241.55C260.227 241.443 260.356 241.29 260.434 241.111C260.511 240.931 260.535 240.733 260.501 240.54C260.467 240.348 260.378 240.169 260.244 240.027C251.349 230.619 240.545 223.223 228.556 218.335C229.069 218.087 229.497 217.691 229.784 217.197C229.798 217.535 229.91 217.86 230.105 218.136C230.301 218.411 230.572 218.624 230.885 218.748C231.199 218.873 231.542 218.904 231.873 218.839C232.204 218.773 232.509 218.613 232.752 218.377C234.35 216.556 236.157 214.928 238.136 213.529C248.243 217.5 257.363 223.628 264.86 231.485C264.949 231.585 265.057 231.667 265.178 231.724C265.299 231.781 265.431 231.814 265.564 231.82C265.698 231.825 265.832 231.804 265.958 231.757C266.083 231.71 266.198 231.638 266.295 231.546C266.392 231.454 266.47 231.343 266.523 231.22C266.577 231.097 266.605 230.965 266.607 230.831C266.608 230.697 266.582 230.564 266.531 230.44C266.48 230.316 266.405 230.203 266.31 230.109C259.263 222.733 250.814 216.84 241.458 212.775C246.288 212.39 251.016 211.172 255.432 209.175C263.177 213.08 270.318 218.083 276.632 224.031C276.726 224.126 276.839 224.201 276.963 224.251C277.087 224.301 277.22 224.326 277.353 224.324C277.487 224.323 277.619 224.294 277.742 224.24C277.864 224.186 277.975 224.108 278.066 224.011C278.158 223.914 278.23 223.799 278.276 223.673C278.323 223.548 278.344 223.414 278.338 223.281C278.332 223.147 278.3 223.016 278.242 222.895C278.185 222.774 278.104 222.666 278.004 222.577C271.941 216.872 265.133 212.013 257.766 208.135C261.075 206.617 264.25 204.822 267.258 202.769C274.76 206.45 281.67 211.23 287.762 216.951C288.686 217.855 290.096 216.371 289.132 215.495C283.158 209.892 276.415 205.169 269.108 201.471C271.492 199.701 273.726 197.738 275.788 195.601C282.747 198.704 289.307 202.633 295.326 207.305C295.431 207.385 295.55 207.443 295.678 207.477C295.806 207.51 295.938 207.518 296.069 207.5C296.2 207.482 296.326 207.439 296.439 207.372C296.553 207.306 296.653 207.217 296.733 207.112C296.812 207.007 296.871 206.887 296.904 206.76C296.937 206.632 296.945 206.499 296.927 206.369C296.91 206.238 296.866 206.112 296.8 205.998C296.733 205.885 296.645 205.785 296.54 205.705C290.582 201.086 284.11 197.173 277.252 194.043C279.161 191.91 280.885 189.617 282.406 187.191C294.44 190.981 305.885 196.438 316.406 203.403C310.736 206.545 285.406 227.003 275.472 234.245C271.418 237.217 220.958 278.019 220.75 278.239V278.243ZM233.706 210.631C231.804 209.401 228.844 214.459 228.22 215.785C228.784 213.559 230.04 211.569 231.808 210.103C232.001 209.939 232.126 209.709 232.158 209.457C232.189 209.206 232.125 208.952 231.978 208.745C231.832 208.538 231.613 208.394 231.365 208.341C231.117 208.288 230.858 208.331 230.64 208.459C231.185 208.131 231.759 207.851 232.354 207.623C232.555 207.545 232.726 207.404 232.84 207.221C232.955 207.038 233.007 206.823 232.99 206.608C232.972 206.393 232.885 206.189 232.742 206.028C232.599 205.866 232.407 205.755 232.196 205.711C235.72 204.089 238.596 207.511 239.144 210.625C236.303 212.032 233.81 214.054 231.848 216.543C232.12 214.875 232.791 213.297 233.804 211.943C233.949 211.749 234.019 211.508 234 211.266C233.98 211.023 233.874 210.797 233.7 210.627L233.706 210.631ZM224.132 302.517L223.412 292.281C228.957 287.277 234.918 282.754 241.23 278.761C241.453 278.619 241.612 278.393 241.669 278.134C241.727 277.875 241.679 277.604 241.537 277.38C241.394 277.156 241.169 276.998 240.91 276.941C240.651 276.883 240.379 276.931 240.156 277.073C234.192 280.855 228.535 285.1 223.236 289.767L222.974 286.037L271.88 246.115C271.981 246.032 272.066 245.93 272.128 245.814C272.19 245.698 272.229 245.571 272.242 245.441C272.255 245.31 272.243 245.178 272.205 245.052C272.167 244.926 272.105 244.809 272.022 244.707C271.938 244.605 271.836 244.521 271.72 244.459C271.605 244.397 271.478 244.358 271.347 244.345C271.216 244.331 271.084 244.344 270.958 244.382C270.833 244.42 270.715 244.482 270.614 244.565L222.802 283.599L222.53 279.729C248.236 259.845 249.382 255.901 294.306 222.465C299.596 218.351 311.374 208.755 317.068 205.265C316.477 208.67 316.172 212.118 316.154 215.573L290.648 236.259C290.487 236.389 290.371 236.566 290.316 236.765C290.26 236.964 290.267 237.175 290.336 237.37C290.405 237.564 290.532 237.733 290.701 237.852C290.87 237.971 291.071 238.035 291.278 238.035C291.814 238.035 289.896 239.435 316.078 218.219C316.038 219.367 316 220.309 315.966 220.477C314.064 222.817 242.08 286.581 224.132 302.513V302.517ZM344.646 277.903L351.356 278.255C350.728 286.702 347.38 294.718 341.814 301.101C340.346 299.889 336.414 295.101 334.95 296.803C334.808 297.027 334.76 297.298 334.818 297.557C334.876 297.816 335.034 298.041 335.258 298.183C337.162 299.431 338.908 300.905 340.458 302.573C334.909 308.263 327.961 312.394 320.312 314.549L318.548 308.201C318.471 307.953 318.3 307.744 318.071 307.619C317.843 307.494 317.575 307.463 317.324 307.533C317.073 307.603 316.86 307.768 316.728 307.993C316.597 308.217 316.559 308.485 316.622 308.737L318.402 315.137C310.868 317.11 303.08 317.939 295.3 317.599L296.314 310.831C296.34 310.575 296.267 310.318 296.11 310.115C295.952 309.911 295.722 309.776 295.467 309.738C295.212 309.7 294.953 309.761 294.742 309.91C294.532 310.058 294.387 310.282 294.338 310.535L293.282 317.575C286.991 317.482 280.709 317.057 274.464 316.301C279.826 289.769 284.572 268.349 289.822 246.981C295.622 241.307 301.112 236.891 304.916 233.303C305.416 234.383 307.05 234.035 308.018 234.387C307.778 235.945 305.85 241.737 308.074 242.077C308.339 242.077 308.593 241.972 308.781 241.784C308.968 241.597 309.074 241.342 309.074 241.077C309.089 238.943 309.397 236.821 309.99 234.771C315.865 235.909 321.597 237.693 327.08 240.091L323.608 245.819C323.54 245.932 323.494 246.056 323.475 246.186C323.455 246.316 323.461 246.449 323.492 246.576C323.523 246.704 323.58 246.824 323.657 246.93C323.735 247.036 323.833 247.125 323.946 247.193C324.058 247.261 324.183 247.306 324.313 247.326C324.443 247.346 324.575 247.34 324.703 247.309C324.83 247.277 324.95 247.221 325.056 247.143C325.162 247.066 325.252 246.968 325.32 246.855L328.902 240.947C336.468 244.763 342.032 249.223 345.878 255.659L340.81 258.191C340.688 258.247 340.579 258.327 340.489 258.427C340.399 258.526 340.33 258.642 340.285 258.768C340.241 258.895 340.223 259.029 340.231 259.162C340.239 259.296 340.275 259.426 340.335 259.546C340.394 259.666 340.478 259.773 340.58 259.86C340.681 259.947 340.8 260.012 340.927 260.053C341.055 260.093 341.19 260.107 341.323 260.095C341.456 260.082 341.586 260.043 341.704 259.979L346.866 257.401C349.979 263.186 351.547 269.675 351.418 276.243L344.752 275.893C344.486 275.879 344.225 275.971 344.027 276.15C343.829 276.328 343.71 276.577 343.696 276.843C343.682 277.109 343.774 277.37 343.952 277.568C344.13 277.766 344.38 277.885 344.646 277.899V277.903Z" fill="#154484"/>
</svg>
