<svg width="355" height="229" viewBox="0 0 355 229" fill="none" xmlns="http://www.w3.org/2000/svg">
<path d="M269.347 91.9761C270.952 92.7671 272.71 93.1987 274.499 93.2409C274.6 93.2294 274.697 93.1981 274.785 93.1487C274.873 93.0993 274.951 93.0329 275.013 92.9532C275.075 92.8736 275.121 92.7824 275.148 92.6849C275.175 92.5874 275.182 92.4856 275.169 92.3853C275.02 91.2135 273.699 92.2179 270.035 90.5253L270.221 89.1489C270.314 88.7583 269.849 88.1259 269.347 88.3119C268.845 88.4979 268.715 89.0931 268.566 90.1719C268.417 91.2507 268.343 91.4739 269.347 91.9761ZM75.2003 97.2585C77.4385 96.6499 79.5405 95.621 81.3941 94.2267C82.1195 93.6687 81.8777 92.3667 81.6731 91.6227C81.6148 91.4297 81.4874 91.265 81.3152 91.1601C81.143 91.0553 80.9381 91.0177 80.7399 91.0546C80.5417 91.0915 80.3641 91.2002 80.2411 91.36C80.1181 91.5197 80.0584 91.7193 80.0735 91.9203C80.1088 92.3234 80.1836 92.7221 80.2967 93.1107C75.8885 96.3285 74.1773 95.5287 74.4377 96.8307C74.4955 96.9793 74.6032 97.1032 74.7423 97.1813C74.8814 97.2593 75.0433 97.2866 75.2003 97.2585ZM70.1411 93.8175C73.8611 93.8175 72.5963 91.6227 71.5919 91.9575L70.1597 92.1807C68.9321 86.3589 69.9179 85.1313 68.8577 85.0941C68.6978 85.0838 68.5402 85.1363 68.4186 85.2406C68.297 85.3449 68.2209 85.4925 68.2067 85.6521C68.0753 87.952 68.2441 90.2592 68.7089 92.5155C68.9135 93.5199 69.2855 93.8175 70.1411 93.8175ZM178.151 90.6183C179.211 90.6183 184.791 89.4093 185.74 89.2605C187.135 89.0187 188.79 88.5909 188.902 87.0843C188.902 86.1543 188.232 85.0755 187.47 85.6335C187.311 85.7448 187.194 85.9057 187.137 86.0909C187.08 86.2761 187.086 86.4751 187.154 86.6565C187.433 87.3819 186.837 87.3261 177.854 89.2791C177.689 89.3302 177.549 89.4415 177.462 89.591C177.375 89.7405 177.348 89.9171 177.385 90.0859C177.423 90.2546 177.522 90.4031 177.664 90.5017C177.806 90.6004 177.98 90.642 178.151 90.6183ZM55.8191 45.0855C56.2283 45.5505 57.2327 45.0855 56.9351 44.3787C55.0751 39.8403 51.6527 34.7811 49.4951 29.7963C49.1603 28.9965 48.4907 27.6387 47.8397 27.5643C47.7582 27.5528 47.675 27.5641 47.5995 27.597C47.524 27.6298 47.4591 27.6829 47.4119 27.7503C47.0027 28.3083 47.5979 29.8521 47.8769 30.5031C48.7325 32.3445 52.8803 41.7189 55.8191 45.0855ZM116.12 37.2363C116.155 37.3815 116.227 37.5151 116.33 37.6237C116.432 37.7323 116.561 37.8123 116.704 37.8555C116.847 37.8988 116.999 37.9039 117.145 37.8703C117.29 37.8367 117.424 37.7656 117.534 37.6641C119.07 36.2658 120.465 34.7209 121.7 33.0513C127.28 50.9073 127.28 51.5397 128.154 51.5397C128.28 51.5362 128.403 51.5058 128.515 51.4505C128.628 51.3953 128.727 51.3165 128.807 51.2194C128.886 51.1224 128.944 51.0094 128.976 50.8882C129.007 50.7669 129.013 50.6402 128.991 50.5167C126.908 43.9323 124.713 37.4967 122.816 30.9309C122.774 30.7677 122.684 30.6207 122.558 30.5084C122.432 30.3961 122.276 30.3235 122.109 30.2996C121.942 30.2758 121.772 30.3018 121.62 30.3744C121.468 30.447 121.34 30.563 121.254 30.7077C120.186 32.3877 118.938 33.9469 117.534 35.3577C116.418 30.2613 113.814 18.6177 113.814 18.6177C113.767 18.4302 113.648 18.2691 113.482 18.1697C113.316 18.0703 113.118 18.0407 112.93 18.0876C112.743 18.1345 112.582 18.2539 112.482 18.4196C112.383 18.5853 112.353 18.7836 112.4 18.9711C113.033 21.8541 115.73 35.9529 116.12 37.2363ZM19.2329 133.994C13.2437 131.129 7.90548 128.19 1.76748 124.954C0.577079 124.322 -0.241321 126.498 1.61868 127C6.97763 130.345 12.6919 133.084 18.6563 135.165C19.4003 135.37 19.9211 134.403 19.2329 133.994ZM23.9945 91.0461C24.1223 91.1592 24.2817 91.2305 24.4513 91.2505C24.6208 91.2704 24.7924 91.2381 24.9431 91.1577C26.1707 90.5625 24.5897 89.0931 25.1849 80.2581C40.2695 98.4675 39.4325 98.0025 40.0649 98.0025C40.1958 98.0107 40.3264 97.9812 40.4411 97.9177C40.5559 97.8541 40.6501 97.7591 40.7127 97.6437C40.7752 97.5284 40.8035 97.3976 40.7942 97.2667C40.7849 97.1359 40.7383 97.0104 40.6601 96.9051C38.2979 93.9291 27.9563 81.0765 25.2035 77.5797C25.1 77.4485 24.961 77.3498 24.8031 77.2952C24.6452 77.2405 24.4749 77.2323 24.3125 77.2714C24.15 77.3106 24.0022 77.3955 23.8865 77.516C23.7708 77.6366 23.6921 77.7878 23.6597 77.9517C23.2816 81.3486 23.2193 84.7733 23.4737 88.1817C17.8937 83.1783 12.5555 77.8773 6.91968 73.0041C6.74906 72.8672 6.53564 72.7948 6.31693 72.7996C6.09822 72.8045 5.88822 72.8863 5.72386 73.0307C5.5595 73.1751 5.45129 73.3728 5.41826 73.589C5.38524 73.8053 5.4295 74.0262 5.54328 74.2131C7.73808 77.6169 20.1257 87.5307 23.9945 91.0461ZM170.711 22.0587C170.711 22.2412 170.784 22.4163 170.913 22.5453C171.042 22.6744 171.217 22.7469 171.399 22.7469C171.582 22.7469 171.757 22.6744 171.886 22.5453C172.015 22.4163 172.088 22.2412 172.088 22.0587C172.407 15.2268 172.12 8.38011 171.232 1.5987C171.213 1.41977 171.142 1.25024 171.029 1.11065C170.915 0.971069 170.764 0.867425 170.592 0.812296C170.421 0.757166 170.237 0.752919 170.064 0.800064C169.89 0.847208 169.734 0.943721 169.614 1.0779C168.777 2.1567 170.786 5.5605 170.711 22.0587ZM221.043 54.3669C235.197 30.4845 234.435 31.6749 234.323 31.2471C234.007 30.1683 233.114 30.6891 225.953 32.8467C227.813 26.2437 230.138 19.1943 231.682 12.5169C231.714 12.301 231.664 12.0809 231.542 11.8999C231.42 11.7189 231.235 11.59 231.023 11.5387C230.811 11.4875 230.587 11.5174 230.396 11.6227C230.204 11.728 230.06 11.901 229.989 12.1077C227.888 19.5477 225.804 26.8203 223.796 33.9627C223.763 34.1103 223.769 34.2638 223.812 34.4087C223.855 34.5536 223.934 34.6852 224.042 34.7912C224.15 34.8971 224.283 34.974 224.428 35.0145C224.574 35.055 224.727 35.0579 224.874 35.0229C224.874 35.0229 229.803 33.4977 231.794 32.8467L219.908 53.7345C219.838 53.8837 219.827 54.0541 219.878 54.2111C219.928 54.3681 220.036 54.5001 220.18 54.5804C220.324 54.6607 220.494 54.6833 220.654 54.6437C220.814 54.604 220.953 54.5051 221.043 54.3669ZM354.033 108.921C353.066 108.456 335.172 119.579 334.986 119.709C334.335 120.174 334.986 121.327 335.656 120.974C336.735 120.49 353.828 110.985 354.405 109.962C354.449 109.869 354.474 109.769 354.479 109.666C354.485 109.564 354.469 109.461 354.435 109.364C354.4 109.268 354.347 109.179 354.278 109.102C354.209 109.026 354.126 108.965 354.033 108.921ZM306.677 87.6609C306.677 87.6609 324.608 73.9899 327.956 71.3859C328.681 70.8093 327.956 69.5259 327.1 69.6189C323.725 69.6994 320.364 70.079 317.056 70.7535C321.857 65.6315 326.109 60.021 329.741 54.0135C330.355 53.0091 328.867 51.9675 328.272 52.9905C324.174 59.6751 319.298 65.85 313.745 71.3859C313.15 71.9625 313.522 73.3761 314.489 73.2459C317.772 72.4099 321.12 71.85 324.496 71.5719C324.496 71.5719 310.286 83.0109 305.896 86.6379C305.822 86.7565 305.786 86.8948 305.793 87.0343C305.8 87.1739 305.849 87.3081 305.933 87.4191C306.018 87.5302 306.135 87.6128 306.268 87.656C306.401 87.6991 306.543 87.7009 306.677 87.6609ZM281.028 33.8139C292.448 14.1351 294.438 11.2707 292.523 10.7871C291.704 10.5825 291.741 10.6569 279.744 33.1071C279.688 33.2726 279.692 33.4526 279.755 33.6156C279.818 33.7786 279.937 33.9141 280.09 33.9985C280.243 34.0828 280.421 34.1105 280.592 34.0767C280.764 34.043 280.918 33.9499 281.028 33.8139Z" fill="#FB8312"/>
<path d="M333.74 155.216C326.152 131.278 306.975 112.864 281.084 104.717C281.066 104.243 281.017 103.771 280.935 103.304C288.003 100.216 289.584 89.5953 288.022 80.3511C289.379 78.1377 292.988 66.7545 290.328 68.3169L285.473 71.1813C284.785 69.3213 283.985 67.5915 283.13 65.8803C283.316 62.9043 280.6 57.5847 275.82 54.1065C271.43 50.9073 263.879 48.0429 252.868 52.6185C244.274 56.1897 234.584 64.0762 233.114 75.5338C231.254 90.4138 236.183 97.6305 226.976 111.45C216.803 106.844 205.959 103.893 194.854 102.708C194.855 101.875 194.799 101.042 194.687 100.216C199.43 97.8165 200.434 90.0045 200.639 87.4563C206.219 82.6203 206.87 72.9855 202.499 72.7623C203.622 65.86 204.052 58.8625 203.782 51.8745C203.54 47.5407 201.68 46.5735 200.825 46.3875C200.221 46.2734 199.597 46.3314 199.025 46.5551C198.453 46.7788 197.955 47.159 197.588 47.6523C196.193 44.8065 193.515 45.1599 192.008 47.3175C191.86 46.5518 191.475 45.8518 190.908 45.3167C190.341 44.7816 189.619 44.4384 188.846 44.3356C188.073 44.2328 187.287 44.3756 186.6 44.7438C185.912 45.112 185.358 45.687 185.015 46.3875C184.654 45.6197 184.073 44.9763 183.346 44.5393C182.619 44.1023 181.779 43.8913 180.931 43.9332C180.084 43.975 179.268 44.2678 178.588 44.7744C177.907 45.281 177.393 45.9785 177.11 46.7781C175.25 42.7419 170.507 43.6719 169.447 47.7639C168.052 44.6205 164.239 44.6391 162.918 48.2847C159.44 45.7179 156.706 48.2847 156.148 52.5069C155.81 59.6864 156.108 66.8818 157.04 74.0086C150.735 72.595 155.645 87.3633 159.403 87.7167C160.054 93.2967 162.36 99.4347 166.843 100.923C166.843 101.667 166.731 102.429 166.731 103.173C154.705 105.094 143.131 109.198 132.581 115.282C126.778 111.19 113.87 105.629 101.464 106.652C99.2156 101.902 97.5242 96.9092 96.4229 91.7715C95.6045 87.2889 97.7063 85.5219 97.6877 81.6531C100.096 76.8 100.696 71.2475 99.3803 65.9919C93.5213 47.3919 58.1255 54.4599 59.1299 74.8827C59.2601 77.2077 59.4647 79.5327 59.6693 81.3369C55.2983 82.6575 55.9493 82.9738 57.1583 88.2934C57.8093 91.195 58.5533 93.5943 61.6037 92.9619C62.9987 99.0069 66.5141 108.66 74.8097 108.66C75.3119 108.66 74.8097 108.344 75.2747 111.469C54.4613 120.527 28.3283 137.509 21.5579 167.269C19.9211 174.449 18.9353 184.641 23.6225 192.342C28.7747 200.916 37.8887 201.456 44.4359 201.028C42.9034 209.448 42.4099 218.025 42.9665 226.566C42.9699 226.685 43.006 226.801 43.0709 226.901C43.1358 227.002 43.227 227.082 43.3345 227.134C43.442 227.186 43.5617 227.207 43.6805 227.195C43.7993 227.184 43.9127 227.14 44.0081 227.068C45.0125 226.473 43.0409 225.84 46.1843 200.898C63.7055 199.28 80.4083 191.747 95.8463 183.823C98.3945 185.683 100.924 187.543 103.547 189.217C105.703 193.577 109.007 197.266 113.104 199.888C117.201 202.51 121.935 203.965 126.797 204.097C126.332 211.927 126.332 219.777 126.797 227.607C126.804 227.702 126.83 227.794 126.873 227.879C126.916 227.963 126.976 228.038 127.049 228.099C127.122 228.159 127.206 228.205 127.297 228.232C127.388 228.26 127.484 228.269 127.578 228.258C129.178 228.11 127.113 227.31 128.378 204.078C143.853 204.078 156.557 193.979 169.298 186.26C184.289 193.123 221.043 205.901 240.48 202.218C241.373 210.142 241.243 217.656 242.005 225.32C242.03 225.457 242.102 225.582 242.209 225.671C242.316 225.761 242.451 225.81 242.591 225.81C242.731 225.81 242.866 225.761 242.973 225.671C243.08 225.582 243.152 225.457 243.177 225.32C243.665 217.49 243.347 209.63 242.228 201.865C255.713 198.666 263.99 189.161 266.185 174.393C267.078 173.798 268.045 173.128 269.05 172.365C280.563 176.96 304.39 188.138 316.033 188.547C315.494 197.196 314.731 206.329 314.601 215.294C314.627 215.446 314.705 215.583 314.823 215.682C314.94 215.781 315.089 215.835 315.243 215.835C315.396 215.835 315.545 215.781 315.662 215.682C315.78 215.583 315.858 215.446 315.884 215.294C316.145 212.82 317.837 191.709 317.744 188.492C336.382 188.064 339.32 172.812 333.74 155.216ZM201.011 75.7197C201.513 75.0501 201.792 74.2689 202.517 74.4921C205.121 75.2547 203.038 81.7275 200.862 84.6105C201.048 81.6531 201.104 78.6586 201.011 75.7197ZM156.613 75.7197C157.208 75.7197 157.133 75.9801 158.473 76.2405L159.217 85.4289C156.464 82.8807 154.474 75.7569 156.613 75.7569V75.7197ZM285.845 73.8597C285.924 73.5983 286.104 73.3789 286.345 73.2498C286.585 73.1208 286.867 73.0926 287.129 73.1715C287.39 73.2505 287.61 73.43 287.739 73.6707C287.868 73.9114 287.896 74.1935 287.817 74.4549C287.166 76.7613 286.664 78.4353 286.236 80.035C286.126 80.234 285.971 80.4048 285.784 80.5339C285.597 80.663 285.382 80.7469 285.157 80.779C283.52 80.8348 285.269 75.5337 285.845 73.8225V73.8597ZM254.542 81.2998C255.602 80.5 256.885 81.5229 257.09 81.5415C258.838 82.6575 260.81 81.0393 260.308 80.5743L259.936 80.2767C258.559 79.1979 255.732 76.9659 256.327 75.4407C256.774 74.2875 258.596 74.4549 259.787 74.3991C259.829 74.3979 259.87 74.387 259.908 74.3673C259.945 74.3477 259.978 74.3198 260.003 74.2858C260.028 74.2517 260.045 74.2124 260.053 74.1708C260.06 74.1293 260.058 74.0865 260.047 74.0457C259.861 73.4505 259.638 72.8553 259.415 72.1857C266.444 68.6995 274.151 66.7949 281.995 66.6057C282.795 68.4657 283.483 70.2327 284.097 71.9811C281.772 73.3017 279.131 74.7526 278.517 77.3938C277.964 77.3251 277.403 77.3813 276.875 77.5584C276.347 77.7355 275.866 78.0288 275.467 78.4167C272.546 74.9013 260.456 75.1989 258.02 75.2919C254.876 75.4221 263.172 81.7647 265.46 83.5503C273.142 89.5209 278.164 85.4103 276.248 79.9605C276.516 79.6312 276.869 79.3811 277.269 79.237C277.669 79.0928 278.1 79.06 278.517 79.1421C278.586 79.4955 278.699 79.8391 278.852 80.1651C278.759 80.1193 278.657 80.0954 278.554 80.0954C278.451 80.0954 278.349 80.1193 278.257 80.1651C277.494 80.6487 278.257 81.2997 280.005 84.4059C279.789 84.6253 279.559 84.8303 279.317 85.0197C278.61 85.5405 279.224 87.8097 281.586 85.0197C281.939 84.5919 281.27 83.3458 280.526 82.2484C281.424 82.8603 282.5 83.1559 283.584 83.0886C284.669 83.0212 285.7 82.5947 286.515 81.8763C287.328 86.87 286.867 91.9881 285.176 96.7563C283.316 101.313 278.647 101.574 279.596 103.304C279.841 109.436 279.341 115.575 278.108 121.587C273.328 120.546 263.916 108.884 260.159 103.471C260.548 98.9482 259.964 94.3946 258.448 90.1161C257.201 87.9585 254.728 86.9727 254.077 84.5361C253.822 83.9928 253.731 83.3875 253.814 82.7934C253.896 82.1992 254.149 81.6417 254.542 81.1881V81.2998ZM282.739 78.1936C282.535 78.8074 282.404 79.6629 281.735 79.6629C281.065 79.6629 280.73 78.8817 280.805 78.2121C280.879 77.5425 281.065 75.9987 281.772 75.5895C281.908 75.5223 282.057 75.4873 282.209 75.4873C282.361 75.4873 282.51 75.5223 282.646 75.5895C283.52 75.8313 283.055 77.1333 282.739 78.0819V78.1936ZM272.714 82.4715C272.509 82.9737 272.305 83.8851 271.709 84.1641C271.605 84.2151 271.491 84.2416 271.375 84.2416C271.258 84.2416 271.144 84.2151 271.04 84.1641C269.924 83.7549 271.151 79.6071 272.156 78.8073C272.243 78.7181 272.352 78.6524 272.472 78.6163C272.592 78.5802 272.719 78.5749 272.841 78.6008C272.963 78.6268 273.077 78.6832 273.172 78.7648C273.267 78.8464 273.339 78.9506 273.383 79.0677C273.774 79.9233 272.825 82.0809 272.714 82.3599V82.4715ZM268.64 80.6673C268.399 81.1509 268.287 81.5973 267.655 81.5973C267.506 81.6077 267.357 81.5813 267.221 81.5206C267.084 81.4599 266.965 81.3667 266.873 81.2492C266.781 81.1317 266.72 80.9935 266.694 80.8466C266.668 80.6998 266.679 80.5488 266.725 80.4069C266.929 79.7931 267.152 78.3981 267.896 78.0261C268.014 77.9717 268.142 77.942 268.272 77.9389C268.402 77.9358 268.531 77.9594 268.651 78.0082C268.771 78.0571 268.88 78.1301 268.971 78.2227C269.062 78.3154 269.133 78.4257 269.18 78.5469C269.44 79.1607 269.012 79.9977 268.64 80.6673ZM259.34 104.513C264.623 113.627 278.536 126.833 279.614 122.406C280.831 117.151 281.393 111.766 281.288 106.373C306.77 115.375 324.068 131.873 331.601 154.137C326.149 151.535 320.157 150.26 314.117 150.417C313.857 144.298 305.468 132.468 302.251 128.916C301.6 128.19 300.391 129.12 301.097 129.846C305.922 135.309 309.614 141.675 311.96 148.576C302.846 141.713 284.488 132.134 259.322 140.02C252.793 128.876 243.26 119.794 231.812 113.813C240.05 108.425 249.524 105.225 259.34 104.513ZM162.341 62.5509C173.527 59.498 185.279 59.16 196.621 61.5651C196.43 64.7172 196.53 67.8801 196.919 71.0139H196.584C195.04 63.9087 185.145 61.7139 181.816 69.1539C180.115 68.5771 178.271 68.5771 176.57 69.1539C173.353 62.4579 164.034 64.6155 162.323 71.2371H161.969C162.36 68.3594 162.485 65.4516 162.341 62.5509ZM187.637 77.8587C187.972 76.9101 190.985 69.8793 192.938 69.6747C193.101 69.6727 193.262 69.7094 193.407 69.7818C193.553 69.8543 193.679 69.9603 193.775 70.0912C193.871 70.2221 193.935 70.3741 193.961 70.5346C193.987 70.695 193.974 70.8594 193.924 71.0139C192.264 73.3792 190.784 75.8663 189.497 78.4539C189.032 79.6072 187.21 79.1607 187.637 77.8587ZM184.94 75.2547C184.717 75.8127 183.713 76.1475 183.359 75.4965C183.006 74.8455 183.862 72.3717 186.28 68.7447C186.893 67.8333 187.47 67.3869 187.972 67.4613C188.136 67.508 188.285 67.594 188.408 67.7117C188.53 67.8295 188.622 67.9755 188.675 68.1369C188.729 68.2983 188.741 68.4703 188.713 68.6379C188.684 68.8054 188.615 68.9634 188.512 69.0981C187.096 71.0112 185.898 73.0762 184.94 75.2547ZM168.758 78.3423C169.558 76.5939 170.451 74.8269 171.307 73.0971C171.398 72.9303 171.532 72.7911 171.696 72.6941C171.86 72.5972 172.046 72.546 172.237 72.546C172.427 72.546 172.613 72.5972 172.777 72.6941C172.941 72.7911 173.075 72.9303 173.167 73.0971C173.283 73.2737 173.346 73.4807 173.346 73.6923C173.346 73.904 173.283 74.111 173.167 74.2875C172.348 75.9057 171.511 77.5983 170.618 79.2351C169.912 80.1651 168.2 79.4583 168.758 78.3423ZM166.508 75.9987L166.396 76.129C165.82 76.966 164.369 76.4265 164.759 75.3663C165.833 72.5086 167.205 69.7717 168.851 67.2009C169.651 66.2337 171.269 67.0707 170.711 68.2053C169.391 70.8465 167.773 73.3203 166.508 75.9987ZM159.868 76.1661C161.058 75.6639 161.393 74.3061 161.728 73.1343L162.118 73.0227C162.021 74.3131 162.179 75.6101 162.585 76.839C162.99 78.0679 163.634 79.2046 164.48 80.1838C165.484 81.1689 166.741 81.856 168.112 82.1684C169.482 82.4808 170.913 82.4062 172.244 81.9529C173.575 81.4996 174.754 80.6854 175.649 79.6012C176.545 78.517 177.121 77.2054 177.314 75.8127C177.122 77.604 177.041 79.4055 177.073 81.2067C177.073 82.3227 176.812 83.7177 178.189 83.8107H180.049C181.016 83.8107 181.276 82.1367 180.16 82.1181H178.784C178.675 78.8041 178.856 75.487 179.323 72.2043C179.453 71.2929 178.133 71.1627 177.947 72.0183C177.128 76.0173 177.947 73.7295 177.221 70.7721C178.52 70.3065 179.94 70.3065 181.239 70.7721C180.829 72.2633 180.749 73.8257 181.002 75.3512C181.256 76.8766 181.838 78.3288 182.708 79.6071C183.371 80.4658 184.211 81.172 185.17 81.6779C186.13 82.1837 187.187 82.4775 188.27 82.5392C189.353 82.6009 190.437 82.4292 191.447 82.0357C192.458 81.6421 193.373 81.0359 194.129 80.2581C195.956 78.219 196.928 75.5549 196.844 72.8181H197.198C197.421 74.4363 197.756 76.6683 199.467 76.5381C199.281 82.8993 199.839 93.799 194.798 97.7794C194.147 98.3002 193.403 98.8953 193.31 99.4905C193.078 101.461 193.078 103.453 193.31 105.424C193.85 110.576 184.829 120.769 180.16 125.121C171.158 112.883 168.572 111.674 168.591 100.941C168.591 99.8625 168.461 99.6951 167.717 99.3231C160.184 95.6775 160.872 85.1685 159.868 76.1661ZM166.824 104.81C167.029 110.52 171.511 118.239 179.416 126.554C181.016 128.637 195.152 111.283 194.873 107.526V104.382C232.947 108.865 260.233 130.776 264.586 160.313C248.776 157.206 228.799 160.852 225.414 161.503C223.962 152.253 221.226 143.25 217.286 134.756C217.219 134.591 217.09 134.459 216.926 134.389C216.762 134.319 216.577 134.318 216.412 134.384C216.246 134.451 216.114 134.58 216.044 134.744C215.975 134.908 215.973 135.093 216.04 135.258C219.46 143.642 221.954 152.374 223.48 161.298C213.696 150.994 198.816 146.418 178.077 147.348C165.594 147.927 153.194 149.69 141.044 152.612C142.016 146.94 144.331 141.583 147.796 136.988C147.872 136.85 147.895 136.688 147.861 136.534C147.826 136.38 147.737 136.243 147.61 136.15C147.482 136.057 147.325 136.013 147.168 136.027C147.011 136.041 146.864 136.111 146.755 136.226C142.846 141.055 140.28 146.829 139.315 152.966C125.829 156.2 112.733 160.884 100.255 166.934C101.966 130.497 135.65 110.967 166.824 104.81ZM86.1557 70.3629C86.1366 72.129 86.2423 73.8942 86.4719 75.6453C79.7759 75.8127 69.1367 78.4167 61.2131 80.8719C61.0085 79.2351 60.5435 76.2591 60.5249 74.4921C68.4976 70.6923 77.393 69.2593 86.1557 70.3629ZM80.2409 80.3511C76.5209 86.6751 77.3207 87.7911 76.0745 87.7911C75.9347 87.7997 75.7948 87.7745 75.6668 87.7176C75.5387 87.6608 75.4262 87.5741 75.3387 87.4647C75.2512 87.3553 75.1913 87.2265 75.1639 87.0891C75.1366 86.9517 75.1427 86.8097 75.1817 86.6751C76.8743 80.2767 78.4925 79.0863 79.3109 78.9375C79.4893 78.9012 79.6745 78.9191 79.8427 78.989C80.0108 79.0589 80.1541 79.1776 80.2542 79.3297C80.3543 79.4818 80.4065 79.6604 80.4041 79.8425C80.4017 80.0245 80.3449 80.2017 80.2409 80.3511ZM74.4935 81.7461C73.8053 82.8807 73.6379 84.4617 72.6335 84.2199C71.6291 83.9781 72.3545 81.7089 72.9497 80.4999C73.5449 79.2909 74.0657 79.2724 74.4191 79.3653C74.6183 79.4195 74.7954 79.5348 74.9255 79.695C75.0557 79.8551 75.1323 80.0521 75.1445 80.2581C75.0716 80.8054 74.846 81.3212 74.4935 81.7461ZM60.6551 85.4661C60.4505 85.9497 60.4319 87.4377 59.4275 87.4377C59.2321 87.4453 59.0397 87.3872 58.8812 87.2725C58.7227 87.1579 58.6073 86.9934 58.5533 86.8053C58.4549 85.5041 58.8687 84.216 59.7065 83.2155C59.8793 83.0611 60.0965 82.9654 60.3271 82.942C60.5576 82.9186 60.7896 82.9688 60.9899 83.0853C61.4363 83.3829 61.3433 84.1641 60.6551 85.4103V85.4661ZM61.3433 89.7999C63.0359 83.7178 64.0031 82.8249 64.5797 82.6947C64.6982 82.6674 64.8221 82.6738 64.9371 82.7133C65.0522 82.7527 65.1539 82.8236 65.2307 82.9179C65.4836 83.211 65.6105 83.592 65.5841 83.9781L63.1289 90.3207C63.0525 90.5575 62.8851 90.7542 62.6636 90.8676C62.4421 90.981 62.1846 91.0017 61.9478 90.9252C61.711 90.8488 61.5143 90.6814 61.401 90.4599C61.2876 90.2384 61.2669 89.9809 61.3433 89.7441V89.7999ZM63.2033 92.6086C66.7745 91.567 67.9277 91.8646 67.5371 86.4333C67.4069 84.8895 67.1093 81.3741 68.6717 81.4299C69.9365 81.4299 69.9737 87.3075 71.8523 89.1303C73.7309 90.9531 76.1675 89.6697 78.2135 89.1303C83.7935 87.6051 82.5659 85.2243 82.1567 77.8401L86.8439 77.4681C88.9457 88.3677 91.7729 80.2023 93.6701 78.9747C94.8791 78.2121 95.9207 79.8861 96.1439 81.1695C96.5717 83.9223 94.2839 86.9355 94.7675 90.9717C95.8636 96.8137 97.7404 102.482 100.348 107.823C96.2741 115.561 84.5747 122.703 79.3667 125.531C77.1719 117.57 76.9859 107.117 75.6467 107.154C69.4715 107.191 65.4167 102.522 63.1289 92.5527L63.2033 92.6086ZM75.4421 113.255C75.7769 116.063 77.1533 128.135 79.1621 127.13C84.2213 124.749 99.6221 114.631 101.817 108.121C105.072 108.865 115.228 106.893 131 116.398C119.361 123.35 110.021 133.57 104.142 145.786C89.0945 143.926 70.4759 141.601 54.8333 149.859C59.6135 138.588 62.4779 137.472 61.1201 136.579C61.0498 136.531 60.9705 136.497 60.887 136.481C60.8035 136.464 60.7175 136.464 60.6341 136.482C60.5507 136.499 60.4717 136.533 60.4018 136.582C60.3319 136.631 60.2726 136.693 60.2273 136.765C59.7437 137.49 52.9547 148.706 52.7873 150.994C50.1647 152.594 44.5661 156.686 42.8921 159.903C36.0542 160.037 29.3908 162.086 23.6597 165.818C29.3141 143.926 47.1887 125.754 75.3677 113.199L75.4421 113.255ZM27.2123 194.481C20.1071 187.041 21.6323 174.597 23.1017 167.771C41.2553 155.849 65.2493 160.945 94.4513 182.949C84.6305 187.152 41.7203 209.528 27.2123 194.481ZM44.7707 159.866C59.5391 143.517 80.8919 144.558 103.379 147.33C97.6133 160.629 97.1111 174.672 101.929 186.129C85.1885 173.593 65.4167 159.81 44.7707 159.81V159.866ZM128.248 202.646C109.927 202.646 100.087 186.557 100.348 168.701C126.388 157.002 149.135 151.013 174.059 149.283C196.826 147.702 212.152 151.85 222.196 162.303C173.129 173.295 152.874 202.59 128.248 202.59V202.646ZM240.74 200.6C222.531 204.711 192.38 193.96 170.953 185.385C205.103 165.223 235.83 157.616 264.827 162.135C267.115 182.912 258.559 196.564 240.74 200.6ZM266.539 172.44C267.504 161.684 265.23 150.886 260.01 141.434C279.986 136.263 296.857 139.276 311.513 150.622C292.262 152.054 272.863 167.083 266.52 172.44H266.539ZM317.131 186.892C305.747 186.892 281.791 175.732 270.761 171.231C282.553 162.303 296.522 152.835 313.336 152.166C319.905 151.76 326.456 153.197 332.252 156.314C337.237 173.128 334.745 186.78 317.112 186.892H317.131Z" fill="#154484"/>
</svg>
