<svg width="17" height="22" viewBox="0 0 17 22" fill="none" xmlns="http://www.w3.org/2000/svg">
<path d="M7.00049 14.4999C8.32657 14.4999 9.59834 13.9731 10.536 13.0355C11.4737 12.0978 12.0005 10.826 12.0005 9.49993C12.0005 8.17385 11.4737 6.90208 10.536 5.9644C9.59834 5.02671 8.32657 4.49993 7.00049 4.49993C5.6744 4.49993 4.40263 5.02671 3.46495 5.9644C2.52727 6.90208 2.00049 8.17385 2.00049 9.49993C2.00049 10.826 2.52727 12.0978 3.46495 13.0355C4.40263 13.9731 5.6744 14.4999 7.00049 14.4999ZM13.0135 5.91393C13.6037 6.90385 13.9404 8.02415 13.9937 9.17542C14.0471 10.3267 13.8155 11.4733 13.3194 12.5136C12.8233 13.5539 12.0781 14.4556 11.1499 15.1388C10.2217 15.822 9.1392 16.2655 7.99849 16.4299L8.00049 16.4999V17.4999H9.00049C9.2657 17.4999 9.52006 17.6053 9.70759 17.7928C9.89513 17.9804 10.0005 18.2347 10.0005 18.4999C10.0005 18.7651 9.89513 19.0195 9.70759 19.207C9.52006 19.3946 9.2657 19.4999 9.00049 19.4999H8.00049V20.4999C8.00049 20.7651 7.89513 21.0195 7.70759 21.207C7.52006 21.3946 7.2657 21.4999 7.00049 21.4999C6.73527 21.4999 6.48092 21.3946 6.29338 21.207C6.10584 21.0195 6.00049 20.7651 6.00049 20.4999V19.4999H5.00049C4.73527 19.4999 4.48092 19.3946 4.29338 19.207C4.10584 19.0195 4.00049 18.7651 4.00049 18.4999C4.00049 18.2347 4.10584 17.9804 4.29338 17.7928C4.48092 17.6053 4.73527 17.4999 5.00049 17.4999H6.00049V16.4999C6.00049 16.4759 6.00049 16.4529 6.00249 16.4299C4.25369 16.1737 2.6665 15.2656 1.55941 13.8878C0.452317 12.51 -0.0927668 10.7645 0.0335379 9.00154C0.159843 7.23859 0.94819 5.58863 2.24039 4.38274C3.53259 3.17685 5.23302 2.50426 7.00049 2.49993C8.75911 2.49779 10.4537 3.15956 11.7455 4.35293L13.5955 2.50293H12.0105C11.7453 2.50293 11.4909 2.39757 11.3034 2.21004C11.1158 2.0225 11.0105 1.76815 11.0105 1.50293C11.0105 1.23771 11.1158 0.983359 11.3034 0.795823C11.4909 0.608287 11.7453 0.50293 12.0105 0.50293H16.0105C16.2757 0.50293 16.5301 0.608287 16.7176 0.795823C16.9051 0.983359 17.0105 1.23771 17.0105 1.50293V5.50293C17.0105 5.76815 16.9051 6.0225 16.7176 6.21004C16.5301 6.39757 16.2757 6.50293 16.0105 6.50293C15.7453 6.50293 15.4909 6.39757 15.3034 6.21004C15.1158 6.0225 15.0105 5.76815 15.0105 5.50293V3.91693L13.0145 5.91393H13.0135Z" fill="#061222"/>
</svg>
