<svg width="24" height="24" viewBox="0 0 24 24" fill="none" xmlns="http://www.w3.org/2000/svg">
<g clip-path="url(#clip0_578_2646)">
<path d="M3 20.9998H7L20 7.99981C20.5304 7.46938 20.8284 6.74996 20.8284 5.99981C20.8284 5.24967 20.5304 4.53025 20 3.99981C19.4696 3.46938 18.7501 3.17139 18 3.17139C17.2499 3.17139 16.5304 3.46938 16 3.99981L3 16.9998V20.9998Z" stroke="#061222" stroke-width="2" stroke-linecap="round" stroke-linejoin="round"/>
<path d="M14.5 5.5L18.5 9.5" stroke="#061222" stroke-width="2" stroke-linecap="round" stroke-linejoin="round"/>
<path d="M12 8L7 3L3 7L8 12" stroke="#061222" stroke-width="2" stroke-linecap="round" stroke-linejoin="round"/>
<path d="M7 8L5.5 9.5" stroke="#061222" stroke-width="2" stroke-linecap="round" stroke-linejoin="round"/>
<path d="M16 12L21 17L17 21L12 16" stroke="#061222" stroke-width="2" stroke-linecap="round" stroke-linejoin="round"/>
<path d="M16 17L14.5 18.5" stroke="#061222" stroke-width="2" stroke-linecap="round" stroke-linejoin="round"/>
</g>
<defs>
<clipPath id="clip0_578_2646">
<rect width="24" height="24" fill="white"/>
</clipPath>
</defs>
</svg>
