<svg width="360" height="360" viewBox="0 0 360 360" fill="none" xmlns="http://www.w3.org/2000/svg">
<path fill-rule="evenodd" clip-rule="evenodd" d="M329.04 214.65C309.438 196.452 277.902 185.85 251.838 179.784C253.056 174.211 253.713 168.531 253.8 162.828C253.908 162.828 254.015 162.806 254.114 162.763C254.213 162.719 254.302 162.656 254.375 162.576C254.448 162.497 254.503 162.403 254.537 162.3C254.572 162.198 254.584 162.089 254.574 161.982C253.872 154.314 251.766 140.562 248.346 133.56C241.056 118.602 228.708 108.828 213.66 102.402C201.888 97.3978 188.46 97.0018 184.14 95.9578C183.306 94.0954 182.965 92.0499 183.15 90.0178C185.975 88.3278 188.232 85.8345 189.633 82.856C191.034 79.8776 191.515 76.5492 191.016 73.2958C191.656 72.9076 192.258 72.4617 192.816 71.9638C192.935 72.0268 193.068 72.0598 193.203 72.0598C193.338 72.0598 193.471 72.0268 193.59 71.9638C195.397 71.1248 196.996 69.8953 198.27 68.3638C200.412 65.5018 198.936 64.2778 199.26 60.4798C199.29 59.6842 199.474 58.9019 199.8 58.1758C203.796 50.2018 204.57 45.9538 202.734 36.7738C201.978 33.0118 198.342 32.6338 196.65 30.9238C194.958 29.2138 195.318 25.6318 192.42 23.8858C188.181 21.2957 183.52 19.4681 178.65 18.4858C166.248 16.3618 165.348 24.7138 157.662 24.5518C152.442 24.4438 147.996 21.6718 140.706 27.5398C138.446 29.2639 136.6 31.4707 135.301 33.9993C134.002 36.5279 133.285 39.3145 133.2 42.1558C133.38 46.7098 136.89 51.6238 137.016 56.0158C137.124 59.6158 135.594 63.8998 137.79 66.8158C138.744 68.0758 140.166 69.0298 140.634 70.4158C141.674 71.6561 142.887 72.7411 144.234 73.6378C144.356 73.6833 144.49 73.6833 144.612 73.6378C146.315 75.0536 148.314 76.0686 150.462 76.6078C152.05 81.839 155.188 86.4649 159.462 89.8738C158.884 91.6845 158.18 93.4527 157.356 95.1658C156.129 95.7394 154.852 96.1974 153.54 96.5338C139.356 100.548 126.702 101.016 110.556 115.056C99.2236 124.677 91.238 137.648 87.7502 152.1C86.7465 156.349 86.2033 160.694 86.1302 165.06C86.1302 167.04 86.1302 167.49 88.4882 167.526C88.8657 172.61 89.6604 177.655 90.8642 182.61C46.6382 196.092 2.8082 223.902 9.7382 269.622C15.8582 309.924 73.0802 327.852 113.238 335.124C151.45 341.741 190.352 343.447 228.996 340.2C260.01 337.536 287.118 331.596 304.254 322.956C351.792 298.8 368.28 251.154 329.04 214.65ZM251.064 178.974C248.004 189.774 240.84 193.068 229.914 195.444C222.12 197.244 212.148 193.14 206.208 187.794C199.224 181.512 177.606 156.024 173.61 152.316C172.674 149.094 170.964 132.516 171.684 128.916C172.08 128.484 172.17 128.61 172.422 128.916C173.106 129.762 173.052 129.924 178.398 145.53C178.458 145.707 178.576 145.858 178.733 145.959C178.89 146.061 179.076 146.106 179.262 146.088C194.382 144.486 215.262 153.432 219.096 158.904C219.194 158.997 219.31 159.069 219.437 159.115C219.564 159.162 219.699 159.182 219.834 159.174C225.108 159.174 247.842 159.822 253.026 162.774V162.9C252.85 168.305 252.193 173.684 251.064 178.974ZM296.478 239.922C303.909 239.788 311.28 241.275 318.078 244.278C337.248 253.584 322.974 268.938 296.478 268.92C296.273 268.906 296.07 268.97 295.911 269.1C295.752 269.23 295.648 269.416 295.62 269.62C295.593 269.823 295.644 270.03 295.763 270.198C295.882 270.365 296.061 270.481 296.262 270.522C303.894 272.682 308.862 276.174 310.662 280.08C312.102 283.356 311.094 286.866 307.404 289.98C298.152 297.846 278.604 299.124 265.536 295.38C265.351 295.329 265.154 295.343 264.978 295.419C264.801 295.496 264.656 295.63 264.566 295.799C264.476 295.969 264.446 296.164 264.482 296.353C264.518 296.542 264.616 296.713 264.762 296.838C268.362 299.952 269.442 303.462 268.002 306.72C262.206 319.842 225.54 322.488 211.788 310.842C211.665 310.734 211.514 310.664 211.352 310.64C211.19 310.617 211.024 310.641 210.876 310.709C210.727 310.778 210.601 310.888 210.514 311.027C210.427 311.165 210.382 311.326 210.384 311.49C210.384 324.09 177.714 330.912 158.454 321.588C153.054 318.996 149.652 315.468 149.652 311.49C149.652 311.329 149.605 311.173 149.519 311.037C149.433 310.902 149.31 310.795 149.165 310.727C149.019 310.659 148.858 310.634 148.699 310.654C148.54 310.674 148.39 310.739 148.266 310.842C143.748 314.658 136.278 317.106 128.088 318.042C120.846 318.813 113.525 318.245 106.488 316.368C98.8562 314.208 93.8882 310.734 92.0882 306.81C90.6482 303.552 91.6562 300.042 95.3462 296.91C95.4898 296.786 95.5867 296.617 95.6208 296.431C95.6549 296.245 95.6241 296.053 95.5336 295.886C95.443 295.72 95.2982 295.59 95.1233 295.517C94.9484 295.445 94.7538 295.434 94.5722 295.488C81.5762 299.088 62.0102 297.972 52.6862 290.088C49.0862 286.956 47.9702 283.446 49.4102 280.152C51.2102 276.246 56.1602 272.736 63.8102 270.576C64.0002 270.535 64.1679 270.425 64.28 270.266C64.3922 270.107 64.4406 269.912 64.4157 269.72C64.3908 269.527 64.2943 269.351 64.1454 269.226C63.9966 269.101 63.8063 269.037 63.6122 269.046C37.2962 269.046 22.5542 253.746 42.0122 244.296C48.8059 241.275 56.1781 239.776 63.6122 239.904C63.7737 239.912 63.9322 239.859 64.0568 239.756C64.1813 239.653 64.2629 239.507 64.2854 239.347C64.308 239.187 64.2699 239.024 64.1786 238.891C64.0874 238.757 63.9495 238.663 63.7922 238.626C56.0882 236.466 51.0302 232.938 49.2842 228.978C47.7902 225.63 48.7982 222.03 52.5602 218.826C58.4102 213.84 68.2022 211.788 75.9602 211.374C73.1289 215.362 71.6754 220.165 71.8202 225.054C72.1622 233.316 80.6042 240.048 87.6422 244.458C85.6936 248.296 85.1218 252.687 86.0222 256.896C88.4342 268.812 104.706 275.4 116.298 278.82C115.236 283.788 112.878 312.462 117.684 311.886C123.498 311.202 125.46 293.382 132.084 290.088C132.984 289.656 139.734 287.928 149.958 285.174C173.89 287.77 198.035 287.728 221.958 285.048C226.422 285.948 229.158 286.506 229.788 286.74C236.664 289.584 239.778 307.26 245.61 307.566C250.002 307.8 246.762 284.562 246.042 280.188C266.958 273.384 283.68 256.5 269.442 239.994C276.3 235.314 284.886 228.168 285.642 219.906C285.833 217.052 285.403 214.19 284.382 211.518C292.05 211.95 301.698 214.002 307.476 218.916C311.184 222.084 312.21 225.63 310.734 228.942C308.934 232.866 303.966 236.358 296.334 238.518C296.198 238.587 296.086 238.696 296.012 238.83C295.939 238.964 295.908 239.117 295.924 239.269C295.94 239.421 296.001 239.565 296.1 239.682C296.199 239.798 296.331 239.882 296.478 239.922ZM102.924 197.028C99.9794 197.162 97.0609 197.645 94.2302 198.468C95.7082 197.069 97.3817 195.893 99.1982 194.976C100.369 195.782 101.617 196.47 102.924 197.028ZM124.722 272.07C127.944 276.354 129.114 279.522 134.568 287.928C132.768 288.432 131.778 288.756 131.454 288.918C124.452 292.518 122.256 310.194 117.414 310.824C116.982 310.824 116.568 309.618 116.46 309.186C114.768 303.192 115.614 284.202 116.856 278.586C117 277.848 124.074 272.556 124.722 272.07ZM268.2 240.624C281.664 256.392 265.41 272.016 245.556 278.424C245.232 276.624 244.89 275.112 244.602 274.104C244.098 272.43 228.888 262.764 226.962 261.504C212.604 267.582 197.816 272.588 182.718 276.48C204.588 281.43 203.31 280.62 202.626 280.998C207.792 282.078 212.436 283.014 216.342 283.788C195.729 285.705 174.982 285.705 154.368 283.788C186.372 275.13 240.624 258.966 268.2 240.624ZM239.652 270.972C241.185 271.961 242.619 273.094 243.936 274.356C245.502 279.756 248.112 302.364 245.844 306.162C245.736 306.36 245.628 306.504 245.466 306.504C240.534 306.198 236.934 287.73 229.842 285.48C233.46 280.8 236.466 275.688 239.724 270.972H239.652ZM241.218 194.328C224.928 199.728 127.188 267.426 117.018 277.272C106.002 274.086 89.6402 267.75 87.3362 256.482C86.5043 252.67 86.9996 248.688 88.7402 245.196C101.484 252.864 119.106 259.146 133.308 263.592C160.902 242.586 164.178 239.706 176.508 230.994C163.278 223.272 133.506 206.172 119.43 200.088C121.009 199.915 122.569 199.602 124.092 199.152V201.348L125.784 202.158V198.558C130.496 196.888 134.793 194.223 138.384 190.746C142.776 186.39 153.432 172.89 157.59 167.67C158.005 167.801 158.449 167.816 158.871 167.711C159.294 167.606 159.679 167.386 159.984 167.076C161.141 165.907 162.134 164.587 162.936 163.152C163.13 162.84 163.223 162.476 163.204 162.109C163.184 161.742 163.053 161.39 162.828 161.1C169.92 152.244 169.2 153.666 169.434 153.072C170 149.558 170.331 146.01 170.424 142.452C170.728 146.002 171.281 149.527 172.08 153C172.14 153.16 172.239 153.302 172.368 153.414C175.086 155.862 188.892 171.918 198.306 181.998C204.318 188.442 208.368 192.798 216.81 195.624C220.498 196.944 224.431 197.435 228.33 197.064C228.33 198.144 228.456 199.116 228.492 199.944L230.13 199.188C230.13 199.062 230.13 197.514 229.986 196.776C235.152 195.66 240.894 193.914 244.962 190.638C247.907 190.966 250.821 191.531 253.674 192.33C249.46 192.33 245.275 193.029 241.29 194.4L241.218 194.328ZM161.658 160.002C158.058 157.212 157.716 157.752 155.52 154.26C156.099 153.884 156.596 153.394 156.978 152.82C157.883 150.844 158.261 148.667 158.076 146.502C159.365 146.43 160.657 146.43 161.946 146.502C162.133 146.508 162.317 146.451 162.467 146.34C162.617 146.229 162.726 146.07 162.774 145.89C167.454 129.258 167.562 127.89 168.552 128.916C169.488 132.516 168.66 149.148 167.922 152.442C166.896 153.504 164.592 156.33 161.658 160.002ZM156.492 146.97C156.463 147.948 156.361 148.923 156.186 149.886C154.366 150.777 152.363 151.234 150.336 151.218C148.697 151.255 147.065 151.005 145.512 150.48C145.746 149.274 146.223 148.128 146.916 147.114C149.94 145.422 154.674 144 156.492 146.97ZM136.962 102.258C143.262 100.458 154.242 98.1358 157.464 96.7138C158.49 96.2638 158.814 96.4078 161.064 89.8558C161.106 89.7192 161.105 89.5729 161.06 89.4373C161.014 89.3017 160.928 89.1837 160.812 89.0998C156.474 85.8439 153.284 81.2924 151.704 76.1038C151.38 74.9158 146.538 75.1318 144.504 71.3158C143.751 69.2619 143.829 66.9955 144.72 64.9978C144.892 64.6449 145.166 64.3517 145.506 64.156C145.846 63.9602 146.237 63.871 146.628 63.8998C147.462 64.0381 148.241 64.4058 148.878 64.9618C149.184 65.2318 150.156 64.9618 150.48 63.1618C151.038 60.1918 149.508 50.4178 151.038 45.1618C152.352 40.6078 156.006 39.7618 160.038 41.6878C166.158 44.6218 167.058 48.5818 176.994 50.6878C179.233 51.1527 181.512 51.3998 183.798 51.4258C184.734 51.4258 187.884 50.2918 188.874 50.3998C189.576 51.6058 188.55 57.8518 189.414 59.5438C189.561 59.8725 189.794 60.1551 190.089 60.3613C190.384 60.5674 190.729 60.6893 191.088 60.7138C191.693 60.7109 192.297 60.6445 192.888 60.5158C193.05 60.5158 193.554 60.3898 193.662 60.5158C194.213 61.1059 194.642 61.7996 194.923 62.5566C195.204 63.3136 195.333 64.1189 195.3 64.9258C195.408 67.6078 192.654 70.7578 192.582 71.1538C190.908 72.7558 190.296 72.6118 190.35 73.1338C191.61 85.7338 182.556 88.5778 182.412 89.6758C182.14 92.0233 182.514 94.4006 183.492 96.5518C184.23 98.0458 199.818 97.6678 213.39 103.536C228.402 110.016 240.39 119.736 247.266 134.136C250.488 140.85 252.396 153.738 253.152 161.136C247.536 160.47 248.688 158.634 220.194 157.896C219.23 156.755 218.116 155.75 216.882 154.908C216.818 151.837 216.487 148.777 215.892 145.764C215.712 142.308 213.462 133.326 212.58 132.57C212.292 132.246 211.806 132.678 212.058 133.02C212.238 133.02 213.066 141.588 215.928 154.26C206.928 148.212 191.79 143.46 179.928 144.342C174.6 128.97 174.762 129.6 174.186 128.502C173.61 127.404 172.872 126.702 171.774 126.936C171.408 127.014 171.067 127.179 170.779 127.417C170.49 127.655 170.264 127.959 170.118 128.304C169.95 127.953 169.697 127.65 169.383 127.421C169.069 127.191 168.703 127.043 168.318 126.99C167.22 126.864 166.518 127.71 165.996 128.79C165.474 129.87 165.564 129.672 161.334 144.99C159.833 144.957 158.331 145.005 156.834 145.134C153.954 142.758 149.256 144.648 146.448 146.736C146.295 146.891 146.157 147.06 146.034 147.24C138.871 149.254 132.098 152.461 126 156.726C126.252 155.268 126.522 153.9 126.882 151.416C127.726 146.65 128.327 141.843 128.682 137.016C128.916 134.73 128.358 134.082 127.71 136.674C126.013 143.443 125.155 150.395 125.154 157.374C123.958 158.273 122.897 159.34 122.004 160.542C115.416 161.118 96.1202 162.54 90.0002 165.87C89.299 165.916 88.5954 165.916 87.8942 165.87C86.2562 140.994 108.216 110.214 136.962 102.258ZM89.1902 167.148C92.9882 163.674 115.29 162.216 120.348 161.91C118.667 163.056 117.319 164.627 116.442 166.464C116.442 166.68 116.136 167.202 116.442 167.31C116.748 167.418 117.972 166.266 118.134 166.122C123.714 161.694 124.218 156.744 140.904 150.408C142.182 149.922 143.496 149.472 144.828 149.058C144.619 149.502 144.457 149.966 144.342 150.444C144.226 150.531 144.134 150.646 144.075 150.778C144.015 150.91 143.989 151.055 144 151.2C144.017 152.36 144.475 153.471 145.28 154.307C146.086 155.143 147.179 155.641 148.338 155.7C148.806 155.7 148.338 155.43 149.364 158.202C149.592 158.832 149.888 159.436 150.246 160.002C151.857 162.605 153.833 164.963 156.114 167.004C152.208 171.918 141.462 185.544 137.304 189.72C132.174 194.868 123.678 199.08 116.334 198.882C113.194 197.833 109.922 197.227 106.614 197.082C99.2342 194.922 94.6442 191.016 92.0342 183.384C90.5523 178.079 89.5996 172.64 89.1902 167.148ZM303.534 321.444C250.974 347.868 104.562 348.21 41.1482 308.556C24.7502 298.278 13.7702 285.336 11.3402 269.37C4.4642 224.532 48.0962 197.19 91.2242 183.852C92.48 188.026 94.9946 191.71 98.4242 194.4C96.165 195.553 94.1485 197.13 92.4842 199.044C86.2531 201.12 80.7657 204.975 76.6982 210.132C68.5082 210.438 58.0142 212.526 51.7502 217.818C47.4482 221.418 46.3502 225.594 48.1502 229.392C49.9502 233.19 53.7302 236.268 59.8682 238.608C32.7242 240.138 22.4102 256.77 41.3642 265.986C47.0332 268.57 53.1414 270.054 59.3642 270.36C53.4422 272.7 49.5722 275.958 48.0422 279.36C46.2422 283.23 47.3582 287.442 51.6422 291.168C60.9302 299.052 79.3262 300.474 92.1422 297.666C90.9724 298.956 90.2018 300.557 89.9238 302.276C89.6459 303.995 89.8725 305.757 90.5762 307.35C92.3762 311.58 97.7762 315.486 106.002 317.826C122.004 322.362 139.86 319.05 148.176 313.038C150.822 326.61 183.42 332.244 202.392 323.064C207.792 320.472 211.23 316.926 211.986 313.038C220.392 319.122 238.32 322.308 254.16 317.826C262.422 315.504 267.732 311.58 269.604 307.35C270.304 305.759 270.529 304 270.251 302.285C269.973 300.57 269.204 298.972 268.038 297.684C280.8 300.474 299.232 299.07 308.538 291.168C312.912 287.46 313.938 283.23 312.138 279.342C310.608 275.904 306.738 272.664 300.96 270.342C307.119 270.006 313.161 268.529 318.78 265.986C337.77 256.77 327.456 240.21 300.78 238.482C306.702 236.142 310.59 232.866 312.12 229.392C313.812 225.54 312.768 221.346 308.43 217.674C302.274 212.472 292.032 210.33 283.824 209.97C279.594 200.538 269.424 194.166 258.498 192.69C254.551 191.137 250.418 190.102 246.204 189.612C248.76 187.071 250.619 183.916 251.604 180.45C277.308 186.624 308.898 197.37 328.212 215.478C366.678 251.55 350.1 298.062 303.534 321.444Z" fill="#154484"/>
<path fill-rule="evenodd" clip-rule="evenodd" d="M128.772 203.4C141.858 209.52 157.446 216.828 172.494 226.8C174.186 227.916 176.094 228.924 177.894 230.058C192.726 219.41 208.374 209.948 224.694 201.762C205.632 200.502 148.626 202.626 128.772 203.4ZM169.38 74.1958C170.201 74.6603 171.126 74.9118 172.069 74.9276C173.012 74.9433 173.944 74.7227 174.78 74.2858C174.948 74.1523 175.058 73.9587 175.086 73.7458C175.041 71.9552 174.878 70.1694 174.6 68.3998C174.274 65.8059 173.633 63.2612 172.692 60.8218C172.668 60.7335 172.61 60.6583 172.531 60.6127C172.452 60.5672 172.358 60.555 172.269 60.5788C172.181 60.6027 172.106 60.6607 172.06 60.74C172.015 60.8193 172.002 60.9135 172.026 61.0018C172.278 62.6398 173.214 71.3698 173.502 73.1878C172.277 73.6924 170.925 73.8056 169.632 73.5118C169.587 73.4953 169.54 73.4878 169.492 73.4897C169.444 73.4916 169.397 73.5029 169.353 73.5229C169.31 73.543 169.271 73.5714 169.238 73.6066C169.206 73.6417 169.181 73.6829 169.164 73.7278C169.148 73.7728 169.14 73.8205 169.142 73.8683C169.144 73.9161 169.155 73.9631 169.175 74.0066C169.195 74.05 169.224 74.0891 169.259 74.1216C169.294 74.1541 169.335 74.1793 169.38 74.1958ZM173.466 73.3858V73.5838C173.466 73.5838 173.448 73.4038 173.466 73.3858ZM162.558 66.4198C163.328 66.1142 164.031 65.6618 164.628 65.0878C164.694 65.0354 164.737 64.9609 164.751 64.8783C164.765 64.7957 164.748 64.7109 164.704 64.6399C164.66 64.5689 164.591 64.5167 164.51 64.493C164.43 64.4694 164.344 64.4761 164.268 64.5118C162.908 64.863 161.514 65.0622 160.11 65.1058C158.702 65.0805 157.298 64.9299 155.916 64.6558C155.877 64.6262 155.832 64.6054 155.784 64.5949C155.736 64.5843 155.686 64.5842 155.638 64.5945C155.59 64.6049 155.545 64.6255 155.505 64.6549C155.466 64.6844 155.434 64.7219 155.41 64.7651C155.386 64.8082 155.372 64.8559 155.369 64.905C155.366 64.954 155.373 65.0032 155.39 65.0492C155.407 65.0952 155.434 65.1369 155.469 65.1716C155.504 65.2062 155.546 65.2329 155.592 65.2498C156.213 65.7791 156.927 66.1881 157.698 66.4558C159.287 66.9216 160.977 66.9091 162.558 66.4198ZM177.57 63.8998C179.55 66.3298 185.058 66.5098 186.336 63.5218C186.362 63.4852 186.381 63.4438 186.391 63.4C186.401 63.3562 186.402 63.3109 186.395 63.2666C186.387 63.2223 186.371 63.1799 186.347 63.1419C186.323 63.1038 186.292 63.0709 186.255 63.0448C186.219 63.0188 186.177 63.0003 186.133 62.9903C186.09 62.9803 186.044 62.979 186 62.9866C185.956 62.9941 185.913 63.0103 185.875 63.0342C185.837 63.058 185.804 63.0892 185.778 63.1258C185.253 63.5195 184.631 63.7622 183.978 63.8278C182.658 64.0798 181.302 64.0798 179.982 63.8278C179.298 63.7504 178.627 63.5871 177.984 63.3418C177.66 62.9998 177.228 63.6118 177.57 63.8998ZM167.814 81.4858C169.28 82.0255 170.854 82.2045 172.404 82.0078C173.374 81.9883 174.335 81.812 175.248 81.4858C175.339 81.4858 175.426 81.4498 175.49 81.3857C175.554 81.3215 175.59 81.2346 175.59 81.1439C175.59 81.0531 175.554 80.9662 175.49 80.902C175.426 80.8379 175.339 80.8018 175.248 80.8018C174.342 80.5282 173.404 80.3769 172.458 80.3518C170.907 80.2387 169.347 80.397 167.85 80.8198C167.801 80.8058 167.749 80.803 167.698 80.8117C167.648 80.8205 167.6 80.8405 167.558 80.8703C167.516 80.9001 167.482 80.939 167.457 80.984C167.432 81.029 167.418 81.079 167.415 81.1303C167.412 81.1816 167.421 81.2328 167.441 81.2802C167.461 81.3276 167.491 81.37 167.529 81.4042C167.567 81.4383 167.613 81.4634 167.662 81.4775C167.712 81.4917 167.764 81.4945 167.814 81.4858Z" fill="#154484"/>
</svg>
